Topmarks-Book-FForge.ufo
<glyph name="quotedbl" format="1">
  <advance width="720"/>
  <unicode hex="0022"/>
  <outline>
    <contour>
      <point x="150" y="989" type="line"/>
      <point x="281" y="989" type="line"/>
      <point x="281" y="1451" type="line"/>
      <point x="114" y="1451" type="line"/>
    </contour>
    <contour>
      <point x="439" y="989" type="line"/>
      <point x="569" y="989" type="line"/>
      <point x="569" y="1451" type="line"/>
      <point x="403" y="1451" type="line"/>
    </contour>
  </outline>
</glyph>
<glyph name="numbersign" format="1">
  <advance width="620"/>
  <unicode hex="0023"/>
  <outline>
    <contour>
      <point x="105" y="30" type="line"/>
      <point x="178" y="30" type="line"/>
      <point x="219" y="242" type="line"/>
      <point x="350" y="242" type="line"/>
      <point x="310" y="30" type="line"/>
      <point x="382" y="30" type="line"/>
      <point x="424" y="242" type="line"/>
      <point x="554" y="242" type="line"/>
      <point x="560" y="306" type="line"/>
      <point x="434" y="306" type="line"/>
      <point x="460" y="443" type="line"/>
      <point x="585" y="443" type="line"/>
      <point x="592" y="505" type="line"/>
      <point x="472" y="505" type="line"/>
      <point x="510" y="710" type="line"/>
      <point x="438" y="710" type="line"/>
      <point x="400" y="505" type="line"/>
      <point x="269" y="505" type="line"/>
      <point x="308" y="710" type="line"/>
      <point x="234" y="710" type="line"/>
      <point x="195" y="505" type="line"/>
      <point x="60" y="505" type="line"/>
      <point x="54" y="443" type="line"/>
      <point x="184" y="443" type="line"/>
      <point x="176" y="397"/>
      <point x="167" y="353"/>
      <point x="159" y="306" type="curve"/>
      <point x="26" y="306" type="line"/>
      <point x="21" y="242" type="line"/>
      <point x="147" y="242" type="line"/>
    </contour>
    <contour>
      <point x="230" y="306" type="line"/>
      <point x="257" y="443" type="line"/>
      <point x="388" y="443" type="line"/>
      <point x="362" y="306" type="line"/>
    </contour>
  </outline>
</glyph>
<glyph name="percent" format="1">
  <advance width="991"/>
  <unicode hex="0025"/>
  <outline>
    <contour>
      <point x="260" y="343" type="curve" smooth="yes"/>
      <point x="288" y="343"/>
      <point x="312" y="348"/>
      <point x="334" y="358" type="curve" smooth="yes"/>
      <point x="396" y="386"/>
      <point x="438" y="446"/>
      <point x="438" y="534" type="curve" smooth="yes"/>
      <point x="438" y="647"/>
      <point x="377" y="724"/>
      <point x="263" y="724" type="curve" smooth="yes"/>
      <point x="235" y="724"/>
      <point x="210" y="719"/>
      <point x="188" y="709" type="curve" smooth="yes"/>
      <point x="126" y="681"/>
      <point x="84" y="620"/>
      <point x="84" y="532" type="curve" smooth="yes"/>
      <point x="84" y="506"/>
      <point x="88" y="481"/>
      <point x="96" y="458" type="curve" smooth="yes"/>
      <point x="118" y="392"/>
      <point x="172" y="343"/>
    </contour>
    <contour>
      <point x="724" y="-14" type="curve" smooth="yes"/>
      <point x="752" y="-14"/>
      <point x="776" y="-8"/>
      <point x="798" y="2" type="curve" smooth="yes"/>
      <point x="860" y="30"/>
      <point x="903" y="90"/>
      <point x="903" y="178" type="curve" smooth="yes"/>
      <point x="903" y="291"/>
      <point x="842" y="368"/>
      <point x="728" y="368" type="curve" smooth="yes"/>
      <point x="700" y="368"/>
      <point x="675" y="362"/>
      <point x="653" y="352" type="curve" smooth="yes"/>
      <point x="591" y="324"/>
      <point x="548" y="264"/>
      <point x="548" y="176" type="curve" smooth="yes"/>
      <point x="548" y="150"/>
      <point x="552" y="124"/>
      <point x="560" y="101" type="curve" smooth="yes"/>
      <point x="583" y="35"/>
      <point x="636" y="-14"/>
    </contour>
    <contour>
      <point x="262" y="400" type="curve" smooth="yes"/>
      <point x="188" y="400"/>
      <point x="156" y="458"/>
      <point x="156" y="532" type="curve" smooth="yes"/>
      <point x="156" y="606"/>
      <point x="188" y="668"/>
      <point x="262" y="668" type="curve" smooth="yes"/>
      <point x="280" y="668"/>
      <point x="296" y="664"/>
      <point x="309" y="657" type="curve" smooth="yes"/>
      <point x="347" y="637"/>
      <point x="367" y="592"/>
      <point x="367" y="534" type="curve" smooth="yes"/>
      <point x="367" y="461"/>
      <point x="335" y="400"/>
    </contour>
    <contour>
      <point x="726" y="43" type="curve" smooth="yes"/>
      <point x="708" y="43"/>
      <point x="692" y="47"/>
      <point x="679" y="54" type="curve" smooth="yes"/>
      <point x="641" y="74"/>
      <point x="620" y="117"/>
      <point x="620" y="175" type="curve" smooth="yes"/>
      <point x="620" y="249"/>
      <point x="653" y="311"/>
      <point x="727" y="311" type="curve" smooth="yes"/>
      <point x="800" y="311"/>
      <point x="831" y="252"/>
      <point x="831" y="178" type="curve" smooth="yes"/>
      <point x="831" y="105"/>
      <point x="800" y="43"/>
    </contour>
    <contour>
      <point x="220" y="-2" type="line"/>
      <point x="297" y="-2" type="line"/>
      <point x="750" y="718" type="line"/>
      <point x="672" y="718" type="line"/>
    </contour>
  </outline>
</glyph>
<glyph name="ampersand" format="1">
  <advance width="822"/>
  <unicode hex="0026"/>
  <outline>
    <contour>
      <point x="330" y="-14" type="curve" smooth="yes"/>
      <point x="446" y="-14"/>
      <point x="523" y="35"/>
      <point x="583" y="93" type="curve"/>
      <point x="628" y="50"/>
      <point x="669" y="5"/>
      <point x="743" y="-6" type="curve"/>
      <point x="809" y="43" type="line"/>
      <point x="788" y="47"/>
      <point x="770" y="52"/>
      <point x="754" y="57" type="curve" smooth="yes"/>
      <point x="700" y="75"/>
      <point x="667" y="104"/>
      <point x="630" y="142" type="curve"/>
      <point x="686" y="214"/>
      <point x="728" y="313"/>
      <point x="732" y="432" type="curve"/>
      <point x="648" y="442" type="line"/>
      <point x="648" y="421"/>
      <point x="646" y="400"/>
      <point x="642" y="378" type="curve" smooth="yes"/>
      <point x="630" y="309"/>
      <point x="606" y="247"/>
      <point x="572" y="199" type="curve"/>
      <point x="364" y="411" type="line"/>
      <point x="403" y="432"/>
      <point x="443" y="457"/>
      <point x="471" y="488" type="curve" smooth="yes"/>
      <point x="495" y="514"/>
      <point x="518" y="548"/>
      <point x="518" y="594" type="curve" smooth="yes"/>
      <point x="518" y="618"/>
      <point x="513" y="639"/>
      <point x="502" y="657" type="curve" smooth="yes"/>
      <point x="472" y="707"/>
      <point x="410" y="736"/>
      <point x="330" y="736" type="curve" smooth="yes"/>
      <point x="230" y="736"/>
      <point x="150" y="691"/>
      <point x="150" y="591" type="curve" smooth="yes"/>
      <point x="150" y="573"/>
      <point x="152" y="557"/>
      <point x="158" y="543" type="curve" smooth="yes"/>
      <point x="176" y="494"/>
      <point x="213" y="460"/>
      <point x="247" y="426" type="curve"/>
      <point x="200" y="401"/>
      <point x="152" y="372"/>
      <point x="116" y="336" type="curve" smooth="yes"/>
      <point x="84" y="304"/>
      <point x="58" y="261"/>
      <point x="58" y="201" type="curve" smooth="yes"/>
      <point x="58" y="167"/>
      <point x="64" y="136"/>
      <point x="78" y="110" type="curve" smooth="yes"/>
      <point x="120" y="31"/>
      <point x="210" y="-14"/>
    </contour>
    <contour>
      <point x="329" y="58" type="curve" smooth="yes"/>
      <point x="303" y="58"/>
      <point x="278" y="61"/>
      <point x="256" y="69" type="curve" smooth="yes"/>
      <point x="199" y="88"/>
      <point x="148" y="129"/>
      <point x="148" y="203" type="curve" smooth="yes"/>
      <point x="148" y="225"/>
      <point x="152" y="244"/>
      <point x="160" y="261" type="curve" smooth="yes"/>
      <point x="187" y="316"/>
      <point x="243" y="347"/>
      <point x="297" y="375" type="curve"/>
      <point x="412" y="262" type="line" smooth="yes"/>
      <point x="446" y="228"/>
      <point x="483" y="188"/>
      <point x="517" y="156" type="curve" smooth="yes"/>
      <point x="524" y="150"/>
      <point x="528" y="146"/>
      <point x="529" y="146" type="curve"/>
      <point x="481" y="99"/>
      <point x="424" y="58"/>
    </contour>
    <contour>
      <point x="312" y="459" type="curve"/>
      <point x="300" y="469"/>
      <point x="292" y="480"/>
      <point x="282" y="490" type="curve" smooth="yes"/>
      <point x="259" y="514"/>
      <point x="236" y="543"/>
      <point x="236" y="589" type="curve" smooth="yes"/>
      <point x="236" y="644"/>
      <point x="279" y="670"/>
      <point x="334" y="670" type="curve" smooth="yes"/>
      <point x="388" y="670"/>
      <point x="432" y="643"/>
      <point x="432" y="589" type="curve" smooth="yes"/>
      <point x="432" y="575"/>
      <point x="429" y="562"/>
      <point x="422" y="550" type="curve" smooth="yes"/>
      <point x="400" y="509"/>
      <point x="354" y="481"/>
    </contour>
  </outline>
</glyph>
<glyph name="quotesingle" format="1">
  <advance width="276"/>
  <unicode hex="0027"/>
  <outline>
    <contour>
      <point x="106" y="494" type="line"/>
      <point x="171" y="494" type="line"/>
      <point x="171" y="726" type="line"/>
      <point x="88" y="726" type="line"/>
    </contour>
  </outline>
</glyph>
<glyph name="parenleft" format="1">
  <advance width="312"/>
  <unicode hex="0028"/>
  <outline>
    <contour>
      <point x="287" y="776" type="curve"/>
      <point x="214" y="776" type="line"/>
      <point x="24" y="478"/>
      <point x="30" y="177"/>
      <point x="210" y="-107" type="curve"/>
      <point x="285" y="-107" type="line"/>
      <point x="117" y="160"/>
      <point x="109" y="497"/>
    </contour>
  </outline>
</glyph>
<glyph name="parenright" format="1">
  <advance width="312"/>
  <unicode hex="0029"/>
  <outline>
    <contour>
      <point x="26" y="776" type="line"/>
      <point x="204" y="497"/>
      <point x="196" y="160"/>
      <point x="28" y="-107" type="curve"/>
      <point x="102" y="-107" type="line"/>
      <point x="282" y="177"/>
      <point x="290" y="478"/>
      <point x="100" y="776" type="curve"/>
    </contour>
  </outline>
</glyph>
<glyph name="hyphen" format="1">
  <advance width="728"/>
  <unicode hex="002D"/>
  <outline>
    <contour>
      <point x="79" y="489" type="line"/>
      <point x="651" y="489" type="line"/>
      <point x="651" y="626" type="line"/>
      <point x="79" y="626" type="line"/>
    </contour>
  </outline>
</glyph>
<glyph name="period" format="1">
  <advance width="269"/>
  <unicode hex="002E"/>
  <outline>
    <contour>
      <point x="126" y="0" type="curve" smooth="yes"/>
      <point x="153" y="0"/>
      <point x="180" y="19"/>
      <point x="180" y="52" type="curve" smooth="yes"/>
      <point x="180" y="80"/>
      <point x="160" y="106"/>
      <point x="126" y="106" type="curve" smooth="yes"/>
      <point x="99" y="106"/>
      <point x="72" y="86"/>
      <point x="72" y="53" type="curve" smooth="yes"/>
      <point x="72" y="25"/>
      <point x="92" y="0"/>
    </contour>
  </outline>
</glyph>
<glyph name="zero" format="1">
  <advance width="1219"/>
  <unicode hex="0030"/>
  <outline>
    <contour>
      <point x="607" y="119" type="curve" smooth="yes"/>
      <point x="323" y="119"/>
      <point x="282" y="423"/>
      <point x="282" y="710" type="curve" smooth="yes"/>
      <point x="282" y="984"/>
      <point x="341" y="1312"/>
      <point x="607" y="1312" type="curve" smooth="yes"/>
      <point x="890" y="1312"/>
      <point x="931" y="996"/>
      <point x="931" y="710" type="curve" smooth="yes"/>
      <point x="931" y="440"/>
      <point x="868" y="119"/>
    </contour>
    <contour>
      <point x="607" y="-23" type="curve" smooth="yes"/>
      <point x="986" y="-23"/>
      <point x="1115" y="325"/>
      <point x="1115" y="710" type="curve" smooth="yes"/>
      <point x="1115" y="1117"/>
      <point x="1012" y="1453"/>
      <point x="607" y="1453" type="curve" smooth="yes"/>
      <point x="222" y="1453"/>
      <point x="104" y="1103"/>
      <point x="104" y="710" type="curve" smooth="yes"/>
      <point x="104" y="319"/>
      <point x="219" y="-23"/>
    </contour>
  </outline>
</glyph>
<glyph name="one" format="1">
  <advance width="1190"/>
  <unicode hex="0031"/>
  <outline>
    <contour>
      <point x="552" y="0" type="line"/>
      <point x="724" y="0" type="line"/>
      <point x="724" y="1438" type="line"/>
      <point x="559" y="1436" type="line"/>
      <point x="491" y="1385"/>
      <point x="369" y="1312"/>
      <point x="253" y="1259" type="curve"/>
      <point x="294" y="1128" type="line"/>
      <point x="400" y="1172"/>
      <point x="486" y="1220"/>
      <point x="552" y="1270" type="curve"/>
    </contour>
  </outline>
</glyph>
<glyph name="three" format="1">
  <advance width="594"/>
  <unicode hex="0033"/>
  <outline>
    <contour>
      <point x="260" y="-12" type="curve" smooth="yes"/>
      <point x="399" y="-12"/>
      <point x="524" y="58"/>
      <point x="524" y="196" type="curve" smooth="yes"/>
      <point x="524" y="303"/>
      <point x="450" y="355"/>
      <point x="360" y="373" type="curve"/>
      <point x="438" y="395"/>
      <point x="505" y="445"/>
      <point x="505" y="543" type="curve" smooth="yes"/>
      <point x="505" y="664"/>
      <point x="397" y="724"/>
      <point x="275" y="724" type="curve" smooth="yes"/>
      <point x="173" y="724"/>
      <point x="90" y="682"/>
      <point x="60" y="608" type="curve"/>
      <point x="110" y="564" type="line"/>
      <point x="142" y="618"/>
      <point x="192" y="653"/>
      <point x="272" y="653" type="curve" smooth="yes"/>
      <point x="352" y="653"/>
      <point x="413" y="621"/>
      <point x="413" y="542" type="curve" smooth="yes"/>
      <point x="413" y="434"/>
      <point x="332" y="406"/>
      <point x="223" y="406" type="curve" smooth="yes"/>
      <point x="192" y="406" type="line"/>
      <point x="192" y="335" type="line"/>
      <point x="231" y="336" type="line" smooth="yes"/>
      <point x="343" y="339"/>
      <point x="436" y="307"/>
      <point x="436" y="197" type="curve" smooth="yes"/>
      <point x="436" y="105"/>
      <point x="357" y="60"/>
      <point x="264" y="60" type="curve" smooth="yes"/>
      <point x="178" y="60"/>
      <point x="120" y="100"/>
      <point x="96" y="162" type="curve"/>
      <point x="54" y="112" type="line"/>
      <point x="72" y="28"/>
      <point x="157" y="-12"/>
    </contour>
  </outline>
</glyph>
<glyph name="five" format="1">
  <advance width="594"/>
  <unicode hex="0035"/>
  <outline>
    <contour>
      <point x="274" y="-12" type="curve" smooth="yes"/>
      <point x="314" y="-12"/>
      <point x="351" y="-5"/>
      <point x="383" y="7" type="curve" smooth="yes"/>
      <point x="468" y="39"/>
      <point x="534" y="110"/>
      <point x="534" y="224" type="curve" smooth="yes"/>
      <point x="534" y="256"/>
      <point x="529" y="287"/>
      <point x="518" y="315" type="curve" smooth="yes"/>
      <point x="486" y="397"/>
      <point x="412" y="452"/>
      <point x="300" y="452" type="curve" smooth="yes"/>
      <point x="248" y="452"/>
      <point x="210" y="440"/>
      <point x="176" y="420" type="curve"/>
      <point x="183" y="640" type="line"/>
      <point x="497" y="640" type="line"/>
      <point x="497" y="712" type="line"/>
      <point x="102" y="712" type="line"/>
      <point x="102" y="326" type="line"/>
      <point x="190" y="329" type="line"/>
      <point x="210" y="359"/>
      <point x="247" y="379"/>
      <point x="296" y="379" type="curve" smooth="yes"/>
      <point x="320" y="379"/>
      <point x="342" y="375"/>
      <point x="360" y="367" type="curve" smooth="yes"/>
      <point x="411" y="345"/>
      <point x="446" y="298"/>
      <point x="446" y="226" type="curve" smooth="yes"/>
      <point x="446" y="204"/>
      <point x="442" y="182"/>
      <point x="434" y="162" type="curve" smooth="yes"/>
      <point x="412" y="101"/>
      <point x="357" y="60"/>
      <point x="273" y="60" type="curve" smooth="yes"/>
      <point x="198" y="60"/>
      <point x="148" y="94"/>
      <point x="114" y="144" type="curve"/>
      <point x="74" y="86" type="line"/>
      <point x="112" y="27"/>
      <point x="178" y="-12"/>
    </contour>
  </outline>
</glyph>
<glyph name="six" format="1">
  <advance width="623"/>
  <unicode hex="0036"/>
  <outline>
    <contour>
      <point x="320" y="-11" type="curve" smooth="yes"/>
      <point x="464" y="-11"/>
      <point x="572" y="89"/>
      <point x="572" y="233" type="curve" smooth="yes"/>
      <point x="572" y="369"/>
      <point x="486" y="478"/>
      <point x="332" y="478" type="curve" smooth="yes"/>
      <point x="277" y="478"/>
      <point x="182" y="451"/>
      <point x="150" y="390" type="curve"/>
      <point x="180" y="526"/>
      <point x="279" y="645"/>
      <point x="455" y="669" type="curve"/>
      <point x="437" y="742" type="line"/>
      <point x="131" y="696"/>
      <point x="50" y="444"/>
      <point x="64" y="250" type="curve" smooth="yes"/>
      <point x="74" y="120"/>
      <point x="142" y="-11"/>
    </contour>
    <contour>
      <point x="320" y="64" type="curve" smooth="yes"/>
      <point x="202" y="64"/>
      <point x="147" y="146"/>
      <point x="147" y="234" type="curve" smooth="yes"/>
      <point x="147" y="334"/>
      <point x="216" y="410"/>
      <point x="322" y="410" type="curve" smooth="yes"/>
      <point x="449" y="410"/>
      <point x="488" y="316"/>
      <point x="488" y="230" type="curve" smooth="yes"/>
      <point x="488" y="128"/>
      <point x="427" y="64"/>
    </contour>
  </outline>
</glyph>
<glyph name="nine" format="1">
  <advance width="1248"/>
  <unicode hex="0039"/>
  <outline>
    <contour>
      <point x="627.0" y="651.0" type="curve" smooth="yes"/>
      <point x="373.0" y="651.0"/>
      <point x="289.0" y="821.0"/>
      <point x="289.0" y="994.0" type="curve" smooth="yes"/>
      <point x="289.0" y="1205.0"/>
      <point x="418.0" y="1334.0"/>
      <point x="632.0" y="1334.0" type="curve" smooth="yes"/>
      <point x="867.0" y="1334.0"/>
      <point x="967.0" y="1202.0"/>
      <point x="967.0" y="992.0" type="curve" smooth="yes"/>
      <point x="967.0" y="791.0"/>
      <point x="855.0" y="651.0"/>
    </contour>
    <contour>
      <point x="527.0" y="-76.0" type="line"/>
      <point x="995.0" y="598.0" type="line" smooth="yes"/>
      <point x="1086.0" y="729.0"/>
      <point x="1134.0" y="865.0"/>
      <point x="1134.0" y="991.0" type="curve" smooth="yes"/>
      <point x="1134.0" y="1243.0"/>
      <point x="975.0" y="1483.0"/>
      <point x="620.0" y="1483.0" type="curve" smooth="yes"/>
      <point x="331.0" y="1483.0"/>
      <point x="117.0" y="1282.0"/>
      <point x="117.0" y="995.0" type="curve" smooth="yes"/>
      <point x="117.0" y="724.0"/>
      <point x="299.0" y="515.0"/>
      <point x="607.0" y="515.0" type="curve" smooth="yes"/>
      <point x="717.0" y="515.0"/>
      <point x="792.0" y="569.0"/>
      <point x="800.0" y="575.0" type="curve"/>
      <point x="391.0" y="0.0" type="line"/>
    </contour>
  </outline>
</glyph>
<glyph name="less" format="1">
  <advance width="728"/>
  <unicode hex="003C"/>
  <outline>
    <contour>
      <point x="612" y="24" type="line"/>
      <point x="612" y="100" type="line"/>
      <point x="219" y="276" type="line"/>
      <point x="614" y="457" type="line"/>
      <point x="614" y="534" type="line"/>
      <point x="110" y="298" type="line"/>
      <point x="110" y="254" type="line"/>
    </contour>
  </outline>
</glyph>
<glyph name="question" format="1">
  <advance width="515"/>
  <unicode hex="003F"/>
  <outline>
    <contour>
      <point x="178" y="184" type="curve"/>
      <point x="240" y="184" type="line"/>
      <point x="238" y="199"/>
      <point x="238" y="212"/>
      <point x="238" y="224" type="curve" smooth="yes"/>
      <point x="238" y="372"/>
      <point x="450" y="393"/>
      <point x="450" y="566" type="curve" smooth="yes"/>
      <point x="450" y="668"/>
      <point x="374" y="742"/>
      <point x="232" y="742" type="curve" smooth="yes"/>
      <point x="179" y="742"/>
      <point x="132" y="726"/>
      <point x="92" y="706" type="curve"/>
      <point x="92" y="631" type="line"/>
      <point x="182" y="682"/>
      <point x="365" y="688"/>
      <point x="365" y="562" type="curve" smooth="yes"/>
      <point x="365" y="422"/>
      <point x="173" y="392"/>
      <point x="173" y="265" type="curve" smooth="yes"/>
      <point x="173" y="240"/>
      <point x="176" y="208"/>
    </contour>
    <contour>
      <point x="212" y="0" type="curve" smooth="yes"/>
      <point x="239" y="0"/>
      <point x="266" y="19"/>
      <point x="266" y="52" type="curve" smooth="yes"/>
      <point x="266" y="80"/>
      <point x="247" y="106"/>
      <point x="213" y="106" type="curve" smooth="yes"/>
      <point x="186" y="106"/>
      <point x="159" y="86"/>
      <point x="159" y="53" type="curve" smooth="yes"/>
      <point x="159" y="25"/>
      <point x="178" y="0"/>
    </contour>
  </outline>
</glyph>
<glyph name="at" format="1">
  <advance width="1895"/>
  <unicode hex="0040"/>
  <outline>
    <contour>
      <point x="967" y="-109" type="curve" smooth="yes"/>
      <point x="1230" y="-109"/>
      <point x="1438" y="-17"/>
      <point x="1566" y="122" type="curve"/>
      <point x="1486" y="192" type="line"/>
      <point x="1362" y="86"/>
      <point x="1190" y="12"/>
      <point x="972" y="12" type="curve" smooth="yes"/>
      <point x="573" y="12"/>
      <point x="281" y="281"/>
      <point x="281" y="677" type="curve" smooth="yes"/>
      <point x="281" y="1060"/>
      <point x="579" y="1357"/>
      <point x="966" y="1357" type="curve" smooth="yes"/>
      <point x="1323" y="1357"/>
      <point x="1607" y="1141"/>
      <point x="1607" y="796" type="curve" smooth="yes"/>
      <point x="1607" y="597"/>
      <point x="1487" y="350"/>
      <point x="1309" y="350" type="curve" smooth="yes"/>
      <point x="1249" y="350"/>
      <point x="1226" y="380"/>
      <point x="1226" y="436" type="curve" smooth="yes"/>
      <point x="1226" y="506"/>
      <point x="1281" y="711"/>
      <point x="1371" y="1107" type="curve"/>
      <point x="1225" y="1107" type="line"/>
      <point x="1207" y="1022" type="line"/>
      <point x="1168" y="1091"/>
      <point x="1084" y="1138"/>
      <point x="978" y="1138" type="curve" smooth="yes"/>
      <point x="726" y="1138"/>
      <point x="498" y="876"/>
      <point x="498" y="610" type="curve" smooth="yes"/>
      <point x="498" y="448"/>
      <point x="589" y="257"/>
      <point x="814" y="257" type="curve" smooth="yes"/>
      <point x="930" y="257"/>
      <point x="1013" y="313"/>
      <point x="1071" y="384" type="curve"/>
      <point x="1090" y="276"/>
      <point x="1165" y="225"/>
      <point x="1288" y="225" type="curve" smooth="yes"/>
      <point x="1549" y="225"/>
      <point x="1760" y="507"/>
      <point x="1760" y="791" type="curve" smooth="yes"/>
      <point x="1760" y="1205"/>
      <point x="1402" y="1476"/>
      <point x="971" y="1476" type="curve" smooth="yes"/>
      <point x="508" y="1476"/>
      <point x="130" y="1143"/>
      <point x="130" y="679" type="curve" smooth="yes"/>
      <point x="130" y="216"/>
      <point x="496" y="-109"/>
    </contour>
    <contour>
      <point x="831" y="385" type="curve" smooth="yes"/>
      <point x="715" y="385"/>
      <point x="655" y="465"/>
      <point x="655" y="582" type="curve" smooth="yes"/>
      <point x="655" y="775"/>
      <point x="789" y="1007"/>
      <point x="980" y="1007" type="curve" smooth="yes"/>
      <point x="1096" y="1007"/>
      <point x="1141" y="936"/>
      <point x="1141" y="821" type="curve" smooth="yes"/>
      <point x="1141" y="622"/>
      <point x="1018" y="385"/>
    </contour>
  </outline>
</glyph>
<glyph name="A" format="1">
  <advance width="1425"/>
  <unicode hex="0041"/>
  <outline>
    <contour>
      <point x="13" y="0" type="line"/>
      <point x="199" y="0" type="line"/>
      <point x="354" y="395" type="line"/>
      <point x="1059" y="395" type="line"/>
      <point x="1216" y="0" type="line"/>
      <point x="1407" y="0" type="line"/>
      <point x="802" y="1456" type="line"/>
      <point x="617" y="1456" type="line"/>
    </contour>
    <contour>
      <point x="408" y="531" type="line"/>
      <point x="602" y="1026" type="line"/>
      <point x="706" y="1298" type="line"/>
      <point x="808" y="1027" type="line"/>
      <point x="1005" y="531" type="line"/>
    </contour>
  </outline>
</glyph>
<glyph name="B" format="1">
  <advance width="647"/>
  <unicode hex="0042"/>
  <outline>
    <contour>
      <point x="87" y="728" type="line"/>
      <point x="87" y="0" type="line"/>
      <point x="326" y="0" type="line" smooth="yes"/>
      <point x="500" y="0"/>
      <point x="606" y="58"/>
      <point x="606" y="202" type="curve" smooth="yes"/>
      <point x="606" y="313"/>
      <point x="553" y="364"/>
      <point x="454" y="384" type="curve"/>
      <point x="534" y="411"/>
      <point x="572" y="458"/>
      <point x="572" y="552" type="curve" smooth="yes"/>
      <point x="572" y="678"/>
      <point x="480" y="728"/>
      <point x="292" y="728" type="curve" smooth="yes"/>
    </contour>
    <contour>
      <point x="515" y="203" type="curve" smooth="yes"/>
      <point x="515" y="111"/>
      <point x="456" y="74"/>
      <point x="322" y="74" type="curve" smooth="yes"/>
      <point x="173" y="74" type="line"/>
      <point x="173" y="342" type="line"/>
      <point x="300" y="342" type="line" smooth="yes"/>
      <point x="454" y="342"/>
      <point x="515" y="301"/>
    </contour>
    <contour>
      <point x="481" y="538" type="curve" smooth="yes"/>
      <point x="481" y="448"/>
      <point x="425" y="412"/>
      <point x="284" y="412" type="curve" smooth="yes"/>
      <point x="173" y="412" type="line"/>
      <point x="173" y="654" type="line"/>
      <point x="292" y="654" type="line" smooth="yes"/>
      <point x="428" y="654"/>
      <point x="481" y="621"/>
    </contour>
  </outline>
</glyph>
<glyph name="C" format="1">
  <advance width="694"/>
  <unicode hex="0043"/>
  <outline>
    <contour>
      <point x="56" y="363" type="curve" smooth="yes"/>
      <point x="56" y="143"/>
      <point x="188" y="-11"/>
      <point x="408" y="-11" type="curve" smooth="yes"/>
      <point x="508" y="-11"/>
      <point x="588" y="16"/>
      <point x="648" y="64" type="curve"/>
      <point x="619" y="134" type="line"/>
      <point x="569" y="90"/>
      <point x="500" y="65"/>
      <point x="410" y="65" type="curve" smooth="yes"/>
      <point x="232" y="65"/>
      <point x="148" y="190"/>
      <point x="148" y="362" type="curve" smooth="yes"/>
      <point x="148" y="538"/>
      <point x="241" y="666"/>
      <point x="418" y="666" type="curve" smooth="yes"/>
      <point x="486" y="666"/>
      <point x="551" y="641"/>
      <point x="601" y="603" type="curve"/>
      <point x="640" y="666" type="line"/>
      <point x="585" y="707"/>
      <point x="519" y="742"/>
      <point x="409" y="742" type="curve" smooth="yes"/>
      <point x="195" y="742"/>
      <point x="56" y="584"/>
    </contour>
    <contour>
      <point x="400" y="728" type="move" smooth="yes"/>
    </contour>
    <contour>
      <point x="421" y="0" type="move" smooth="yes"/>
    </contour>
  </outline>
</glyph>
<glyph name="D" format="1">
  <advance width="760"/>
  <unicode hex="0044"/>
  <outline>
    <contour>
      <point x="87" y="728" type="line"/>
      <point x="87" y="0" type="line"/>
      <point x="296" y="0" type="line" smooth="yes"/>
      <point x="538" y="0"/>
      <point x="706" y="120"/>
      <point x="706" y="362" type="curve" smooth="yes"/>
      <point x="706" y="636"/>
      <point x="518" y="728"/>
      <point x="244" y="728" type="curve" smooth="yes"/>
    </contour>
    <contour>
      <point x="614" y="360" type="curve" smooth="yes"/>
      <point x="614" y="170"/>
      <point x="496" y="74"/>
      <point x="304" y="74" type="curve" smooth="yes"/>
      <point x="173" y="74" type="line"/>
      <point x="173" y="654" type="line"/>
      <point x="255" y="654" type="line" smooth="yes"/>
      <point x="480" y="654"/>
      <point x="614" y="584"/>
    </contour>
    <contour>
      <point x="127" y="386" type="move" smooth="yes"/>
    </contour>
    <contour>
      <point x="372" y="728" type="move" smooth="yes"/>
    </contour>
  </outline>
</glyph>
<glyph name="E" format="1">
  <advance width="592"/>
  <unicode hex="0045"/>
  <outline>
    <contour>
      <point x="87" y="728" type="line"/>
      <point x="87" y="0" type="line"/>
      <point x="546" y="0" type="line"/>
      <point x="546" y="74" type="line"/>
      <point x="173" y="74" type="line"/>
      <point x="173" y="336" type="line"/>
      <point x="502" y="336" type="line"/>
      <point x="502" y="410" type="line"/>
      <point x="173" y="410" type="line"/>
      <point x="173" y="654" type="line"/>
      <point x="520" y="654" type="line"/>
      <point x="520" y="728" type="line"/>
    </contour>
    <contour>
      <point x="532" y="5" type="move" smooth="yes"/>
    </contour>
    <contour>
      <point x="328" y="0" type="move" smooth="yes"/>
    </contour>
    <contour>
      <point x="322" y="728" type="move" smooth="yes"/>
    </contour>
  </outline>
</glyph>
<glyph name="F" format="1">
  <advance width="550"/>
  <unicode hex="0046"/>
  <outline>
    <contour>
      <point x="87" y="728" type="line"/>
      <point x="87" y="0" type="line"/>
      <point x="173" y="0" type="line"/>
      <point x="173" y="334" type="line"/>
      <point x="492" y="334" type="line"/>
      <point x="492" y="408" type="line"/>
      <point x="173" y="408" type="line"/>
      <point x="173" y="654" type="line"/>
      <point x="508" y="654" type="line"/>
      <point x="508" y="728" type="line"/>
    </contour>
  </outline>
</glyph>
<glyph name="G" format="1">
  <advance width="755"/>
  <unicode hex="0047"/>
  <outline>
    <contour>
      <point x="56" y="350" type="curve" smooth="yes"/>
      <point x="56" y="119"/>
      <point x="190" y="-11"/>
      <point x="422" y="-11" type="curve" smooth="yes"/>
      <point x="522" y="-11"/>
      <point x="602" y="6"/>
      <point x="674" y="40" type="curve"/>
      <point x="674" y="378" type="line"/>
      <point x="408" y="378" type="line"/>
      <point x="408" y="304" type="line"/>
      <point x="588" y="304" type="line"/>
      <point x="588" y="89" type="line"/>
      <point x="543" y="71"/>
      <point x="490" y="65"/>
      <point x="430" y="65" type="curve" smooth="yes"/>
      <point x="244" y="65"/>
      <point x="145" y="172"/>
      <point x="145" y="357" type="curve" smooth="yes"/>
      <point x="145" y="535"/>
      <point x="248" y="666"/>
      <point x="426" y="666" type="curve" smooth="yes"/>
      <point x="512" y="666"/>
      <point x="580" y="643"/>
      <point x="626" y="599" type="curve"/>
      <point x="662" y="658" type="line"/>
      <point x="604" y="716"/>
      <point x="534" y="742"/>
      <point x="428" y="742" type="curve" smooth="yes"/>
      <point x="196" y="742"/>
      <point x="56" y="582"/>
    </contour>
    <contour>
      <point x="430" y="728" type="move" smooth="yes"/>
    </contour>
    <contour>
      <point x="380" y="0" type="move" smooth="yes"/>
    </contour>
  </outline>
</glyph>
<glyph name="H" format="1">
  <advance width="745"/>
  <unicode hex="0048"/>
  <outline>
    <contour>
      <point x="660" y="728" type="line"/>
      <point x="574" y="728" type="line"/>
      <point x="574" y="411" type="line"/>
      <point x="173" y="411" type="line"/>
      <point x="173" y="728" type="line"/>
      <point x="87" y="728" type="line"/>
      <point x="87" y="0" type="line"/>
      <point x="173" y="0" type="line"/>
      <point x="173" y="337" type="line"/>
      <point x="574" y="337" type="line"/>
      <point x="574" y="0" type="line"/>
      <point x="660" y="0" type="line"/>
    </contour>
    <contour>
      <point x="374" y="582" type="move" smooth="yes"/>
    </contour>
    <contour>
      <point x="374" y="728" type="move" smooth="yes"/>
    </contour>
  </outline>
</glyph>
<glyph name="I" format="1">
  <advance width="271"/>
  <unicode hex="0049"/>
  <outline>
    <contour>
      <point x="93" y="728" type="line"/>
      <point x="93" y="0" type="line"/>
      <point x="179" y="0" type="line"/>
      <point x="179" y="728" type="line"/>
    </contour>
    <contour>
      <point x="154" y="5" type="move" smooth="yes"/>
    </contour>
    <contour>
      <point x="136" y="728" type="move" smooth="yes"/>
    </contour>
  </outline>
</glyph>
<glyph name="J" format="1">
  <advance width="519"/>
  <unicode hex="004A"/>
  <outline>
    <contour>
      <point x="82" y="728" type="line"/>
      <point x="82" y="657" type="line"/>
      <point x="292" y="657" type="line"/>
      <point x="292" y="167" type="line" smooth="yes"/>
      <point x="292" y="-17"/>
      <point x="194" y="-55"/>
      <point x="46" y="11" type="curve"/>
      <point x="20" y="-57" type="line"/>
      <point x="198" y="-143"/>
      <point x="378" y="-88"/>
      <point x="378" y="168" type="curve" smooth="yes"/>
      <point x="378" y="657" type="line"/>
      <point x="514" y="657" type="line"/>
      <point x="514" y="728" type="line"/>
    </contour>
    <contour>
      <point x="305" y="728" type="move" smooth="yes"/>
    </contour>
  </outline>
</glyph>
<glyph name="K" format="1">
  <advance width="622"/>
  <unicode hex="004B"/>
  <outline>
    <contour>
      <point x="495" y="728" type="line"/>
      <point x="173" y="398" type="line"/>
      <point x="173" y="728" type="line"/>
      <point x="87" y="728" type="line"/>
      <point x="87" y="0" type="line"/>
      <point x="173" y="0" type="line"/>
      <point x="173" y="362" type="line"/>
      <point x="512" y="0" type="line"/>
      <point x="621" y="0" type="line"/>
      <point x="266" y="382" type="line"/>
      <point x="601" y="728" type="line"/>
    </contour>
    <contour>
      <point x="308" y="728" type="move" smooth="yes"/>
    </contour>
    <contour>
      <point x="308" y="0" type="move" smooth="yes"/>
    </contour>
  </outline>
</glyph>
<glyph name="L" format="1">
  <advance width="533"/>
  <unicode hex="004C"/>
  <outline>
    <contour>
      <point x="87" y="728" type="line"/>
      <point x="87" y="0" type="line"/>
      <point x="522" y="0" type="line"/>
      <point x="522" y="74" type="line"/>
      <point x="173" y="74" type="line"/>
      <point x="173" y="728" type="line"/>
    </contour>
    <contour>
      <point x="134" y="408" type="move" smooth="yes"/>
    </contour>
    <contour>
      <point x="296" y="0" type="move" smooth="yes"/>
    </contour>
    <contour>
      <point x="266" y="728" type="move" smooth="yes"/>
    </contour>
  </outline>
</glyph>
<glyph name="M" format="1">
  <advance width="971"/>
  <unicode hex="004D"/>
  <outline>
    <contour>
      <point x="768" y="728" type="line"/>
      <point x="529" y="264" type="line"/>
      <point x="486" y="161" type="line"/>
      <point x="444" y="263" type="line"/>
      <point x="206" y="728" type="line"/>
      <point x="87" y="728" type="line"/>
      <point x="87" y="0" type="line"/>
      <point x="172" y="0" type="line"/>
      <point x="172" y="634" type="line"/>
      <point x="202" y="554" type="line"/>
      <point x="454" y="55" type="line"/>
      <point x="517" y="55" type="line"/>
      <point x="767" y="548" type="line"/>
      <point x="801" y="626" type="line"/>
      <point x="801" y="0" type="line"/>
      <point x="885" y="0" type="line"/>
      <point x="885" y="728" type="line"/>
    </contour>
    <contour>
      <point x="495" y="728" type="move" smooth="yes"/>
    </contour>
  </outline>
</glyph>
<glyph name="N" format="1">
  <advance width="784"/>
  <unicode hex="004E"/>
  <outline>
    <contour>
      <point x="612" y="728" type="line"/>
      <point x="612" y="108" type="line"/>
      <point x="574" y="171" type="line"/>
      <point x="190" y="728" type="line"/>
      <point x="87" y="728" type="line"/>
      <point x="87" y="0" type="line"/>
      <point x="173" y="0" type="line"/>
      <point x="173" y="618" type="line"/>
      <point x="209" y="556" type="line"/>
      <point x="594" y="0" type="line"/>
      <point x="698" y="0" type="line"/>
      <point x="698" y="728" type="line"/>
    </contour>
    <contour>
      <point x="398" y="728" type="move" smooth="yes"/>
    </contour>
    <contour>
      <point x="398" y="0" type="move" smooth="yes"/>
    </contour>
  </outline>
</glyph>
<glyph name="O" format="1">
  <advance width="829"/>
  <unicode hex="004F"/>
  <outline>
    <contour>
      <point x="56" y="364" type="curve" smooth="yes"/>
      <point x="56" y="168"/>
      <point x="178" y="-12"/>
      <point x="415" y="-12" type="curve" smooth="yes"/>
      <point x="652" y="-12"/>
      <point x="774" y="168"/>
      <point x="774" y="364" type="curve" smooth="yes"/>
      <point x="774" y="561"/>
      <point x="652" y="742"/>
      <point x="415" y="742" type="curve" smooth="yes"/>
      <point x="178" y="742"/>
      <point x="56" y="561"/>
    </contour>
    <contour>
      <point x="682" y="364" type="curve" smooth="yes"/>
      <point x="682" y="164"/>
      <point x="554" y="64"/>
      <point x="415" y="64" type="curve" smooth="yes"/>
      <point x="276" y="64"/>
      <point x="148" y="164"/>
      <point x="148" y="364" type="curve" smooth="yes"/>
      <point x="148" y="564"/>
      <point x="276" y="666"/>
      <point x="415" y="666" type="curve" smooth="yes"/>
      <point x="554" y="666"/>
      <point x="682" y="564"/>
    </contour>
    <contour>
      <point x="414" y="0" type="move" smooth="yes"/>
    </contour>
  </outline>
</glyph>
<glyph name="P" format="1">
  <advance width="618"/>
  <unicode hex="0050"/>
  <outline>
    <contour>
      <point x="87" y="728" type="line"/>
      <point x="87" y="0" type="line"/>
      <point x="173" y="0" type="line"/>
      <point x="173" y="294" type="line"/>
      <point x="294" y="294" type="line" smooth="yes"/>
      <point x="486" y="294"/>
      <point x="586" y="367"/>
      <point x="586" y="510" type="curve" smooth="yes"/>
      <point x="586" y="658"/>
      <point x="498" y="728"/>
      <point x="282" y="728" type="curve" smooth="yes"/>
    </contour>
    <contour>
      <point x="494" y="509" type="curve" smooth="yes"/>
      <point x="494" y="416"/>
      <point x="430" y="368"/>
      <point x="304" y="368" type="curve" smooth="yes"/>
      <point x="173" y="368" type="line"/>
      <point x="173" y="654" type="line"/>
      <point x="294" y="654" type="line" smooth="yes"/>
      <point x="440" y="654"/>
      <point x="494" y="607"/>
    </contour>
  </outline>
</glyph>
<glyph name="Q" format="1">
  <advance width="823"/>
  <unicode hex="0051"/>
  <outline>
    <contour>
      <point x="56" y="368" type="curve" smooth="yes"/>
      <point x="56" y="141"/>
      <point x="185" y="-11"/>
      <point x="411" y="-11" type="curve" smooth="yes"/>
      <point x="430" y="-11"/>
      <point x="448" y="-9"/>
      <point x="464" y="-6" type="curve"/>
      <point x="502" y="-88"/>
      <point x="556" y="-153"/>
      <point x="614" y="-211" type="curve"/>
      <point x="670" y="-152" type="line"/>
      <point x="621" y="-106"/>
      <point x="578" y="-55"/>
      <point x="546" y="10" type="curve"/>
      <point x="678" y="62"/>
      <point x="768" y="187"/>
      <point x="768" y="368" type="curve" smooth="yes"/>
      <point x="768" y="592"/>
      <point x="639" y="742"/>
      <point x="415" y="742" type="curve" smooth="yes"/>
      <point x="193" y="742"/>
      <point x="56" y="592"/>
    </contour>
    <contour>
      <point x="674" y="368" type="curve" smooth="yes"/>
      <point x="674" y="191"/>
      <point x="590" y="62"/>
      <point x="412" y="62" type="curve" smooth="yes"/>
      <point x="239" y="62"/>
      <point x="146" y="194"/>
      <point x="146" y="368" type="curve" smooth="yes"/>
      <point x="146" y="540"/>
      <point x="239" y="667"/>
      <point x="412" y="667" type="curve" smooth="yes"/>
      <point x="588" y="667"/>
      <point x="674" y="544"/>
    </contour>
  </outline>
</glyph>
<glyph name="R" format="1">
  <advance width="659"/>
  <unicode hex="0052"/>
  <outline>
    <contour>
      <point x="87" y="728" type="line"/>
      <point x="87" y="0" type="line"/>
      <point x="173" y="0" type="line"/>
      <point x="173" y="326" type="line"/>
      <point x="308" y="326" type="line" smooth="yes"/>
      <point x="406" y="326"/>
      <point x="432" y="282"/>
      <point x="458" y="210" type="curve" smooth="yes"/>
      <point x="534" y="0" type="line"/>
      <point x="628" y="0" type="line"/>
      <point x="546" y="205" type="line" smooth="yes"/>
      <point x="519" y="273"/>
      <point x="497" y="336"/>
      <point x="429" y="358" type="curve"/>
      <point x="512" y="380"/>
      <point x="584" y="433"/>
      <point x="584" y="537" type="curve" smooth="yes"/>
      <point x="584" y="705"/>
      <point x="433" y="728"/>
      <point x="265" y="728" type="curve" smooth="yes"/>
    </contour>
    <contour>
      <point x="493" y="529" type="curve" smooth="yes"/>
      <point x="493" y="429"/>
      <point x="404" y="400"/>
      <point x="306" y="400" type="curve" smooth="yes"/>
      <point x="173" y="400" type="line"/>
      <point x="173" y="654" type="line"/>
      <point x="312" y="654" type="line" smooth="yes"/>
      <point x="414" y="654"/>
      <point x="493" y="631"/>
    </contour>
    <contour>
      <point x="330" y="728" type="move" smooth="yes"/>
    </contour>
    <contour>
      <point x="330" y="0" type="move" smooth="yes"/>
    </contour>
  </outline>
</glyph>
<glyph name="S" format="1">
  <advance width="613"/>
  <unicode hex="0053"/>
  <outline>
    <contour>
      <point x="70" y="554" type="curve" smooth="yes"/>
      <point x="68" y="450"/>
      <point x="112" y="385"/>
      <point x="283" y="336" type="curve" smooth="yes"/>
      <point x="455" y="286"/>
      <point x="476" y="250"/>
      <point x="476" y="200" type="curve" smooth="yes"/>
      <point x="476" y="114"/>
      <point x="427" y="62"/>
      <point x="324" y="62" type="curve" smooth="yes"/>
      <point x="251" y="62"/>
      <point x="153" y="93"/>
      <point x="87" y="144" type="curve"/>
      <point x="73" y="62" type="line"/>
      <point x="140" y="18"/>
      <point x="243" y="-11"/>
      <point x="332" y="-11" type="curve" smooth="yes"/>
      <point x="495" y="-11"/>
      <point x="568" y="84"/>
      <point x="568" y="198" type="curve" smooth="yes"/>
      <point x="568" y="290"/>
      <point x="526" y="354"/>
      <point x="338" y="408" type="curve" smooth="yes"/>
      <point x="185" y="452"/>
      <point x="159" y="492"/>
      <point x="162" y="560" type="curve" smooth="yes"/>
      <point x="165" y="631"/>
      <point x="220" y="667"/>
      <point x="328" y="667" type="curve" smooth="yes"/>
      <point x="390" y="667"/>
      <point x="460" y="644"/>
      <point x="516" y="609" type="curve"/>
      <point x="542" y="680" type="line"/>
      <point x="464" y="728"/>
      <point x="386" y="742"/>
      <point x="318" y="742" type="curve" smooth="yes"/>
      <point x="172" y="742"/>
      <point x="72" y="669"/>
    </contour>
    <contour>
      <point x="320" y="728" type="move" smooth="yes"/>
    </contour>
    <contour>
      <point x="311" y="0" type="move" smooth="yes"/>
    </contour>
  </outline>
</glyph>
<glyph name="T" format="1">
  <advance width="579"/>
  <unicode hex="0054"/>
  <outline>
    <contour>
      <point x="12" y="728" type="line"/>
      <point x="12" y="654" type="line"/>
      <point x="246" y="654" type="line"/>
      <point x="246" y="0" type="line"/>
      <point x="332" y="0" type="line"/>
      <point x="332" y="654" type="line"/>
      <point x="568" y="654" type="line"/>
      <point x="568" y="728" type="line"/>
    </contour>
    <contour>
      <point x="290" y="406" type="move" smooth="yes"/>
    </contour>
    <contour>
      <point x="290" y="0" type="move" smooth="yes"/>
    </contour>
    <contour>
      <point x="290" y="728" type="move" smooth="yes"/>
    </contour>
  </outline>
</glyph>
<glyph name="U" format="1">
  <advance width="735"/>
  <unicode hex="0055"/>
  <outline>
    <contour>
      <point x="569" y="728" type="line"/>
      <point x="569" y="270" type="line" smooth="yes"/>
      <point x="569" y="140"/>
      <point x="500" y="62"/>
      <point x="374" y="62" type="curve" smooth="yes"/>
      <point x="238" y="62"/>
      <point x="168" y="130"/>
      <point x="168" y="273" type="curve" smooth="yes"/>
      <point x="168" y="728" type="line"/>
      <point x="82" y="728" type="line"/>
      <point x="82" y="270" type="line" smooth="yes"/>
      <point x="82" y="78"/>
      <point x="182" y="-11"/>
      <point x="374" y="-11" type="curve" smooth="yes"/>
      <point x="555" y="-11"/>
      <point x="653" y="96"/>
      <point x="654" y="276" type="curve"/>
      <point x="654" y="728" type="line"/>
    </contour>
    <contour>
      <point x="410" y="5" type="move" smooth="yes"/>
    </contour>
    <contour>
      <point x="370" y="728" type="move" smooth="yes"/>
    </contour>
  </outline>
</glyph>
<glyph name="V" format="1">
  <advance width="667"/>
  <unicode hex="0056"/>
  <outline>
    <contour>
      <point x="570" y="728" type="line"/>
      <point x="360" y="162" type="line"/>
      <point x="336" y="92" type="line"/>
      <point x="313" y="162" type="line"/>
      <point x="100" y="728" type="line"/>
      <point x="6" y="728" type="line"/>
      <point x="290" y="0" type="line"/>
      <point x="384" y="0" type="line"/>
      <point x="662" y="728" type="line"/>
    </contour>
  </outline>
</glyph>
<glyph name="W" format="1">
  <advance width="1046"/>
  <unicode hex="0057"/>
  <outline>
    <contour>
      <point x="948" y="728" type="line"/>
      <point x="796" y="174" type="line"/>
      <point x="775" y="95" type="line"/>
      <point x="752" y="172" type="line"/>
      <point x="572" y="728" type="line"/>
      <point x="482" y="728" type="line"/>
      <point x="301" y="174" type="line"/>
      <point x="276" y="94" type="line"/>
      <point x="257" y="174" type="line"/>
      <point x="102" y="728" type="line"/>
      <point x="9" y="728" type="line"/>
      <point x="220" y="0" type="line"/>
      <point x="327" y="0" type="line"/>
      <point x="524" y="624" type="line"/>
      <point x="721" y="0" type="line"/>
      <point x="827" y="0" type="line"/>
      <point x="1038" y="728" type="line"/>
    </contour>
    <contour>
      <point x="524" y="728" type="move" smooth="yes"/>
    </contour>
  </outline>
</glyph>
<glyph name="X" format="1">
  <advance width="651"/>
  <unicode hex="0058"/>
  <outline>
    <contour>
      <point x="540" y="728" type="line"/>
      <point x="331" y="427" type="line"/>
      <point x="129" y="728" type="line"/>
      <point x="25" y="728" type="line"/>
      <point x="274" y="370" type="line"/>
      <point x="6" y="0" type="line"/>
      <point x="108" y="0" type="line"/>
      <point x="324" y="312" type="line"/>
      <point x="542" y="0" type="line"/>
      <point x="642" y="0" type="line"/>
      <point x="382" y="371" type="line"/>
      <point x="638" y="728" type="line"/>
    </contour>
  </outline>
</glyph>
<glyph name="Y" format="1">
  <advance width="627"/>
  <unicode hex="0059"/>
  <outline>
    <contour>
      <point x="530" y="728" type="line"/>
      <point x="313" y="364" type="line"/>
      <point x="98" y="728" type="line"/>
      <point x="2" y="728" type="line"/>
      <point x="268" y="291" type="line"/>
      <point x="268" y="0" type="line"/>
      <point x="354" y="0" type="line"/>
      <point x="354" y="292" type="line"/>
      <point x="626" y="728" type="line"/>
    </contour>
    <contour>
      <point x="314" y="728" type="move" smooth="yes"/>
    </contour>
  </outline>
</glyph>
<glyph name="Z" format="1">
  <advance width="610"/>
  <unicode hex="005A"/>
  <outline>
    <contour>
      <point x="62" y="728" type="line"/>
      <point x="62" y="654" type="line"/>
      <point x="461" y="654" type="line"/>
      <point x="46" y="46" type="line"/>
      <point x="46" y="0" type="line"/>
      <point x="573" y="0" type="line"/>
      <point x="573" y="74" type="line"/>
      <point x="160" y="74" type="line"/>
      <point x="577" y="684" type="line"/>
      <point x="577" y="728" type="line"/>
    </contour>
    <contour>
      <point x="336" y="728" type="move" smooth="yes"/>
    </contour>
  </outline>
</glyph>
<glyph name="backslash" format="1">
  <advance width="706"/>
  <unicode hex="005C"/>
  <outline>
    <contour>
      <point x="594" y="-215" type="line"/>
      <point x="757" y="-215" type="line"/>
      <point x="120" y="1451" type="line"/>
      <point x="-47" y="1451" type="line"/>
    </contour>
  </outline>
</glyph>
<glyph name="underscore" format="1">
  <advance width="498"/>
  <unicode hex="005F"/>
  <outline>
    <contour>
      <point x="-2" y="-136" type="line"/>
      <point x="499" y="-136" type="line"/>
      <point x="499" y="-72" type="line"/>
      <point x="-2" y="-72" type="line"/>
    </contour>
  </outline>
</glyph>
<glyph name="grave" format="1">
  <advance width="295"/>
  <unicode hex="0060"/>
  <outline>
    <contour>
      <point x="166" y="586" type="line"/>
      <point x="231" y="586" type="line"/>
      <point x="108" y="746" type="line"/>
      <point x="0" y="746" type="line"/>
    </contour>
    <contour>
      <point x="184" y="513" type="move" smooth="yes"/>
    </contour>
  </outline>
</glyph>
<glyph name="a" format="1">
  <advance width="601"/>
  <unicode hex="0061"/>
  <outline>
    <contour>
      <point x="45" y="219" type="curve" smooth="yes"/>
      <point x="45" y="81"/>
      <point x="128" y="-11"/>
      <point x="253" y="-11" type="curve" smooth="yes"/>
      <point x="332" y="-11"/>
      <point x="407" y="27"/>
      <point x="441" y="83" type="curve"/>
      <point x="453" y="32"/>
      <point x="499" y="-2"/>
      <point x="557" y="-2" type="curve"/>
      <point x="574" y="70" type="line"/>
      <point x="536" y="70"/>
      <point x="512" y="99"/>
      <point x="512" y="143" type="curve" smooth="yes"/>
      <point x="512" y="481" type="line"/>
      <point x="472" y="507"/>
      <point x="400" y="524"/>
      <point x="333" y="524" type="curve" smooth="yes"/>
      <point x="160" y="524"/>
      <point x="45" y="402"/>
    </contour>
    <contour>
      <point x="430" y="436" type="curve"/>
      <point x="430" y="226" type="line" smooth="yes"/>
      <point x="430" y="130"/>
      <point x="364" y="58"/>
      <point x="266" y="58" type="curve" smooth="yes"/>
      <point x="184" y="58"/>
      <point x="130" y="124"/>
      <point x="130" y="224" type="curve" smooth="yes"/>
      <point x="130" y="362"/>
      <point x="211" y="454"/>
      <point x="332" y="454" type="curve" smooth="yes"/>
      <point x="370" y="454"/>
      <point x="409" y="446"/>
    </contour>
    <contour>
      <point x="538" y="12" type="move" smooth="yes"/>
    </contour>
    <contour>
      <point x="315" y="513" type="move" smooth="yes"/>
    </contour>
  </outline>
</glyph>
<glyph name="b" format="1">
  <advance width="604"/>
  <unicode hex="0062"/>
  <outline>
    <contour>
      <point x="76" y="748" type="line"/>
      <point x="76" y="36" type="line"/>
      <point x="76" y="36"/>
      <point x="184" y="-11"/>
      <point x="306" y="-11" type="curve" smooth="yes"/>
      <point x="464" y="-11"/>
      <point x="560" y="107"/>
      <point x="560" y="272" type="curve" smooth="yes"/>
      <point x="560" y="431"/>
      <point x="463" y="522"/>
      <point x="352" y="522" type="curve" smooth="yes"/>
      <point x="287" y="522"/>
      <point x="216" y="492"/>
      <point x="158" y="426" type="curve"/>
      <point x="158" y="762" type="line"/>
    </contour>
    <contour>
      <point x="475" y="275" type="curve" smooth="yes"/>
      <point x="475" y="159"/>
      <point x="424" y="58"/>
      <point x="308" y="58" type="curve" smooth="yes"/>
      <point x="231" y="58"/>
      <point x="158" y="78"/>
      <point x="158" y="78" type="curve"/>
      <point x="158" y="343" type="line"/>
      <point x="215" y="415"/>
      <point x="284" y="452"/>
      <point x="343" y="452" type="curve" smooth="yes"/>
      <point x="417" y="452"/>
      <point x="475" y="394"/>
    </contour>
  </outline>
</glyph>
<glyph name="c" format="1">
  <advance width="508"/>
  <unicode hex="0063"/>
  <outline>
    <contour>
      <point x="45" y="252" type="curve" smooth="yes"/>
      <point x="45" y="79"/>
      <point x="177" y="-12"/>
      <point x="317" y="-12" type="curve" smooth="yes"/>
      <point x="383" y="-12"/>
      <point x="450" y="11"/>
      <point x="506" y="56" type="curve"/>
      <point x="478" y="119" type="line"/>
      <point x="436" y="80"/>
      <point x="380" y="60"/>
      <point x="326" y="60" type="curve" smooth="yes"/>
      <point x="226" y="60"/>
      <point x="130" y="120"/>
      <point x="130" y="254" type="curve" smooth="yes"/>
      <point x="130" y="383"/>
      <point x="228" y="453"/>
      <point x="328" y="453" type="curve" smooth="yes"/>
      <point x="376" y="453"/>
      <point x="424" y="436"/>
      <point x="462" y="400" type="curve"/>
      <point x="492" y="460" type="line"/>
      <point x="444" y="506"/>
      <point x="380" y="525"/>
      <point x="320" y="525" type="curve" smooth="yes"/>
      <point x="182" y="525"/>
      <point x="45" y="426"/>
    </contour>
    <contour>
      <point x="306" y="513" type="move" smooth="yes"/>
    </contour>
    <contour>
      <point x="323" y="0" type="move" smooth="yes"/>
    </contour>
  </outline>
</glyph>
<glyph name="d" format="1">
  <advance width="612"/>
  <unicode hex="0064"/>
  <outline>
    <contour>
      <point x="453" y="753" type="line"/>
      <point x="453" y="458" type="line"/>
      <point x="398" y="505"/>
      <point x="346" y="524"/>
      <point x="280" y="524" type="curve" smooth="yes"/>
      <point x="126" y="524"/>
      <point x="45" y="404"/>
      <point x="45" y="250" type="curve" smooth="yes"/>
      <point x="45" y="92"/>
      <point x="138" y="-11"/>
      <point x="280" y="-11" type="curve" smooth="yes"/>
      <point x="360" y="-11"/>
      <point x="430" y="26"/>
      <point x="460" y="88" type="curve"/>
      <point x="462" y="55"/>
      <point x="479" y="16"/>
      <point x="498" y="-6" type="curve"/>
      <point x="580" y="5" type="line"/>
      <point x="558" y="38"/>
      <point x="536" y="81"/>
      <point x="536" y="195" type="curve" smooth="yes"/>
      <point x="536" y="763" type="line"/>
    </contour>
    <contour>
      <point x="454" y="372" type="curve"/>
      <point x="454" y="267" type="line" smooth="yes"/>
      <point x="454" y="148"/>
      <point x="410" y="58"/>
      <point x="290" y="58" type="curve" smooth="yes"/>
      <point x="196" y="58"/>
      <point x="130" y="138"/>
      <point x="130" y="254" type="curve" smooth="yes"/>
      <point x="130" y="366"/>
      <point x="179" y="454"/>
      <point x="292" y="454" type="curve" smooth="yes"/>
      <point x="352" y="454"/>
      <point x="416" y="422"/>
    </contour>
    <contour>
      <point x="492" y="647" type="move" smooth="yes"/>
    </contour>
  </outline>
</glyph>
<glyph name="e" format="1">
  <advance width="534"/>
  <unicode hex="0065"/>
  <outline>
    <contour>
      <point x="45" y="258" type="curve" smooth="yes"/>
      <point x="45" y="94"/>
      <point x="158" y="-11"/>
      <point x="310" y="-11" type="curve" smooth="yes"/>
      <point x="390" y="-11"/>
      <point x="466" y="21"/>
      <point x="516" y="73" type="curve"/>
      <point x="474" y="126" type="line"/>
      <point x="440" y="88"/>
      <point x="380" y="58"/>
      <point x="310" y="58" type="curve" smooth="yes"/>
      <point x="236" y="58"/>
      <point x="162" y="110"/>
      <point x="142" y="186" type="curve"/>
      <point x="336" y="213"/>
      <point x="482" y="254"/>
      <point x="482" y="376" type="curve" smooth="yes"/>
      <point x="482" y="460"/>
      <point x="413" y="524"/>
      <point x="305" y="524" type="curve" smooth="yes"/>
      <point x="141" y="524"/>
      <point x="45" y="398"/>
    </contour>
    <contour>
      <point x="400" y="378" type="curve" smooth="yes"/>
      <point x="400" y="298"/>
      <point x="290" y="267"/>
      <point x="136" y="245" type="curve"/>
      <point x="135" y="253"/>
      <point x="135" y="263"/>
      <point x="135" y="270" type="curve" smooth="yes"/>
      <point x="135" y="394"/>
      <point x="223" y="454"/>
      <point x="306" y="454" type="curve" smooth="yes"/>
      <point x="366" y="454"/>
      <point x="400" y="424"/>
    </contour>
    <contour>
      <point x="388" y="23" type="move" smooth="yes"/>
    </contour>
    <contour>
      <point x="310" y="0" type="move" smooth="yes"/>
    </contour>
    <contour>
      <point x="281" y="513" type="move" smooth="yes"/>
    </contour>
  </outline>
</glyph>
<glyph name="f" format="1">
  <advance width="348"/>
  <unicode hex="0066"/>
  <outline>
    <contour>
      <point x="126" y="585" type="curve" smooth="yes"/>
      <point x="126" y="513" type="line"/>
      <point x="26" y="513" type="line"/>
      <point x="26" y="460" type="line"/>
      <point x="126" y="460" type="line"/>
      <point x="126" y="-17" type="line" smooth="yes"/>
      <point x="126" y="-97"/>
      <point x="95" y="-150"/>
      <point x="35" y="-164" type="curve"/>
      <point x="46" y="-224" type="line"/>
      <point x="166" y="-208"/>
      <point x="208" y="-131"/>
      <point x="208" y="-6" type="curve" smooth="yes"/>
      <point x="208" y="460" type="line"/>
      <point x="332" y="460" type="line"/>
      <point x="332" y="513" type="line"/>
      <point x="208" y="513" type="line"/>
      <point x="208" y="596" type="line" smooth="yes"/>
      <point x="208" y="672"/>
      <point x="234" y="704"/>
      <point x="292" y="704" type="curve" smooth="yes"/>
      <point x="310" y="704"/>
      <point x="330" y="700"/>
      <point x="348" y="696" type="curve"/>
      <point x="360" y="750" type="line"/>
      <point x="328" y="761"/>
      <point x="297" y="766"/>
      <point x="270" y="766" type="curve" smooth="yes"/>
      <point x="169" y="766"/>
      <point x="126" y="711"/>
    </contour>
  </outline>
</glyph>
<glyph name="g" format="1">
  <advance width="570"/>
  <unicode hex="0067"/>
  <outline>
    <contour>
      <point x="45" y="219" type="curve" smooth="yes"/>
      <point x="45" y="81"/>
      <point x="128" y="-11"/>
      <point x="253" y="-11" type="curve" smooth="yes"/>
      <point x="324" y="-11"/>
      <point x="392" y="20"/>
      <point x="430" y="67" type="curve"/>
      <point x="430" y="-22" type="line" smooth="yes"/>
      <point x="430" y="-116"/>
      <point x="360" y="-178"/>
      <point x="256" y="-178" type="curve" smooth="yes"/>
      <point x="212" y="-178"/>
      <point x="150" y="-163"/>
      <point x="104" y="-140" type="curve"/>
      <point x="94" y="-216" type="line"/>
      <point x="144" y="-234"/>
      <point x="212" y="-247"/>
      <point x="262" y="-247" type="curve" smooth="yes"/>
      <point x="412" y="-247"/>
      <point x="512" y="-154"/>
      <point x="512" y="-12" type="curve" smooth="yes"/>
      <point x="512" y="481" type="line"/>
      <point x="472" y="507"/>
      <point x="400" y="524"/>
      <point x="333" y="524" type="curve" smooth="yes"/>
      <point x="160" y="524"/>
      <point x="45" y="402"/>
    </contour>
    <contour>
      <point x="430" y="436" type="curve"/>
      <point x="430" y="226" type="line" smooth="yes"/>
      <point x="430" y="130"/>
      <point x="364" y="58"/>
      <point x="266" y="58" type="curve" smooth="yes"/>
      <point x="184" y="58"/>
      <point x="130" y="124"/>
      <point x="130" y="224" type="curve" smooth="yes"/>
      <point x="130" y="362"/>
      <point x="211" y="454"/>
      <point x="332" y="454" type="curve" smooth="yes"/>
      <point x="370" y="454"/>
      <point x="409" y="446"/>
    </contour>
    <contour>
      <point x="320" y="513" type="move" smooth="yes"/>
    </contour>
  </outline>
</glyph>
<glyph name="h" format="1">
  <advance width="610"/>
  <unicode hex="0068"/>
  <outline>
    <contour>
      <point x="149" y="421" type="curve"/>
      <point x="158" y="266" type="line"/>
      <point x="158" y="398"/>
      <point x="250" y="454"/>
      <point x="326" y="454" type="curve" smooth="yes"/>
      <point x="403" y="454"/>
      <point x="434" y="402"/>
      <point x="434" y="281" type="curve"/>
      <point x="432" y="142" type="line" smooth="yes"/>
      <point x="431" y="24"/>
      <point x="456" y="-26"/>
      <point x="565" y="-10" type="curve"/>
      <point x="573" y="60" type="line"/>
      <point x="511" y="48"/>
      <point x="515" y="84"/>
      <point x="515" y="160" type="curve" smooth="yes"/>
      <point x="516" y="282" type="line" smooth="yes"/>
      <point x="518" y="451"/>
      <point x="459" y="524"/>
      <point x="343" y="524" type="curve" smooth="yes"/>
      <point x="259" y="524"/>
      <point x="177" y="483"/>
    </contour>
    <contour>
      <point x="76" y="753" type="line"/>
      <point x="76" y="0" type="line"/>
      <point x="158" y="0" type="line"/>
      <point x="158" y="763" type="line"/>
    </contour>
    <contour>
      <point x="114" y="600" type="move" smooth="yes"/>
    </contour>
    <contour>
      <point x="308" y="734" type="move" smooth="yes"/>
    </contour>
  </outline>
</glyph>
<glyph name="i" format="1">
  <advance width="300"/>
  <unicode hex="0069"/>
  <outline>
    <contour>
      <point x="84" y="513" type="line"/>
      <point x="84" y="131" type="line" smooth="yes"/>
      <point x="84" y="-9"/>
      <point x="196" y="-35"/>
      <point x="312" y="13" type="curve"/>
      <point x="301" y="72" type="line"/>
      <point x="233" y="48"/>
      <point x="166" y="38"/>
      <point x="166" y="134" type="curve" smooth="yes"/>
      <point x="166" y="513" type="line"/>
    </contour>
    <contour>
      <point x="72" y="672" type="curve" smooth="yes"/>
      <point x="72" y="639"/>
      <point x="99" y="622"/>
      <point x="126" y="622" type="curve" smooth="yes"/>
      <point x="153" y="622"/>
      <point x="180" y="639"/>
      <point x="180" y="672" type="curve" smooth="yes"/>
      <point x="180" y="705"/>
      <point x="153" y="722"/>
      <point x="126" y="722" type="curve" smooth="yes"/>
      <point x="99" y="722"/>
      <point x="72" y="705"/>
    </contour>
  </outline>
</glyph>
<glyph name="j" format="1">
  <advance width="268"/>
  <unicode hex="006A"/>
  <outline>
    <contour>
      <point x="104" y="513" type="line"/>
      <point x="104" y="14" type="line" smooth="yes"/>
      <point x="104" y="-170"/>
      <point x="18" y="-184"/>
      <point x="-72" y="-154" type="curve"/>
      <point x="-81" y="-218" type="line"/>
      <point x="63" y="-262"/>
      <point x="186" y="-208"/>
      <point x="186" y="18" type="curve" smooth="yes"/>
      <point x="186" y="513" type="line"/>
    </contour>
    <contour>
      <point x="92" y="672" type="curve" smooth="yes"/>
      <point x="92" y="639"/>
      <point x="118" y="622"/>
      <point x="145" y="622" type="curve" smooth="yes"/>
      <point x="172" y="622"/>
      <point x="199" y="639"/>
      <point x="199" y="672" type="curve" smooth="yes"/>
      <point x="199" y="705"/>
      <point x="173" y="722"/>
      <point x="146" y="722" type="curve" smooth="yes"/>
      <point x="119" y="722"/>
      <point x="92" y="705"/>
    </contour>
  </outline>
</glyph>
<glyph name="k" format="1">
  <advance width="552"/>
  <unicode hex="006B"/>
  <outline>
    <contour>
      <point x="76" y="748" type="line"/>
      <point x="76" y="30" type="line" smooth="yes"/>
      <point x="76" y="-13"/>
      <point x="121" y="-19"/>
      <point x="148" y="14" type="curve"/>
      <point x="301" y="229" type="line"/>
      <point x="382" y="94" type="line" smooth="yes"/>
      <point x="422" y="27"/>
      <point x="480" y="-8"/>
      <point x="532" y="-18" type="curve"/>
      <point x="576" y="44" type="line"/>
      <point x="524" y="44"/>
      <point x="482" y="79"/>
      <point x="446" y="135" type="curve" smooth="yes"/>
      <point x="347" y="290" type="line"/>
      <point x="490" y="488" type="line"/>
      <point x="416" y="513" type="line"/>
      <point x="158" y="146" type="line"/>
      <point x="158" y="763" type="line"/>
    </contour>
    <contour>
      <point x="294" y="0" type="move" smooth="yes"/>
    </contour>
  </outline>
</glyph>
<glyph name="l" format="1">
  <advance width="342"/>
  <unicode hex="006C"/>
  <outline>
    <contour>
      <point x="84" y="748" type="line"/>
      <point x="84" y="150" type="line" smooth="yes"/>
      <point x="84" y="-4"/>
      <point x="225" y="-40"/>
      <point x="360" y="18" type="curve"/>
      <point x="348" y="76" type="line"/>
      <point x="260" y="38"/>
      <point x="166" y="42"/>
      <point x="166" y="146" type="curve" smooth="yes"/>
      <point x="166" y="763" type="line"/>
    </contour>
    <contour>
      <point x="205" y="728" type="move" smooth="yes"/>
    </contour>
    <contour>
      <point x="207" y="0" type="move" smooth="yes"/>
    </contour>
    <contour>
      <point x="290" y="480" type="move" smooth="yes"/>
    </contour>
  </outline>
</glyph>
<glyph name="m" format="1">
  <advance width="1964"/>
  <unicode hex="006D"/>
  <outline>
    <contour>
      <point x="1872" y="-19" type="curve"/>
      <point x="1888" y="119" type="line"/>
      <point x="1764" y="95"/>
      <point x="1771" y="167"/>
      <point x="1772" y="320" type="curve" smooth="yes"/>
      <point x="1774" y="565" type="line" smooth="yes"/>
      <point x="1777" y="903"/>
      <point x="1660" y="1048"/>
      <point x="1428" y="1048" type="curve" smooth="yes"/>
      <point x="1285" y="1048"/>
      <point x="1085" y="863"/>
      <point x="1031" y="811" type="curve"/>
      <point x="984" y="975"/>
      <point x="877" y="1048"/>
      <point x="712" y="1048" type="curve" smooth="yes"/>
      <point x="549" y="1048"/>
      <point x="388" y="969"/>
      <point x="328" y="851" type="curve"/>
      <point x="318" y="917"/>
      <point x="285" y="971"/>
      <point x="249" y="1026" type="curve"/>
      <point x="84" y="974" type="line"/>
      <point x="130" y="897"/>
      <point x="179" y="815"/>
      <point x="179" y="699" type="curve" smooth="yes"/>
      <point x="179" y="0" type="line"/>
      <point x="343" y="0" type="line"/>
      <point x="343" y="565" type="line"/>
      <point x="358" y="804"/>
      <point x="532" y="907"/>
      <point x="677" y="907" type="curve" smooth="yes"/>
      <point x="831" y="907"/>
      <point x="893" y="804"/>
      <point x="893" y="562" type="curve" smooth="yes"/>
      <point x="891" y="0" type="line"/>
      <point x="1056" y="0" type="line"/>
      <point x="1058" y="533" type="line"/>
      <point x="1058" y="532" type="line"/>
      <point x="1058" y="795"/>
      <point x="1241" y="907"/>
      <point x="1393" y="907" type="curve" smooth="yes"/>
      <point x="1547" y="907"/>
      <point x="1609" y="804"/>
      <point x="1609" y="562" type="curve"/>
      <point x="1607" y="284" type="line" smooth="yes"/>
      <point x="1605" y="48"/>
      <point x="1654" y="-51"/>
    </contour>
  </outline>
</glyph>
<glyph name="n" format="1">
  <advance width="623"/>
  <unicode hex="006E"/>
  <outline>
    <contour>
      <point x="162" y="421" type="curve"/>
      <point x="171" y="266" type="line"/>
      <point x="171" y="398"/>
      <point x="262" y="454"/>
      <point x="338" y="454" type="curve" smooth="yes"/>
      <point x="415" y="454"/>
      <point x="446" y="402"/>
      <point x="446" y="281" type="curve"/>
      <point x="446" y="142" type="line" smooth="yes"/>
      <point x="445" y="24"/>
      <point x="469" y="-26"/>
      <point x="578" y="-10" type="curve"/>
      <point x="586" y="60" type="line"/>
      <point x="524" y="48"/>
      <point x="528" y="84"/>
      <point x="528" y="160" type="curve" smooth="yes"/>
      <point x="529" y="282" type="line" smooth="yes"/>
      <point x="531" y="451"/>
      <point x="472" y="524"/>
      <point x="356" y="524" type="curve" smooth="yes"/>
      <point x="272" y="524"/>
      <point x="190" y="483"/>
    </contour>
    <contour>
      <point x="42" y="487" type="line"/>
      <point x="65" y="449"/>
      <point x="90" y="408"/>
      <point x="90" y="350" type="curve" smooth="yes"/>
      <point x="90" y="0" type="line"/>
      <point x="172" y="0" type="line"/>
      <point x="172" y="326" type="line"/>
      <point x="166" y="406" type="line"/>
      <point x="166" y="448"/>
      <point x="146" y="480"/>
      <point x="124" y="513" type="curve"/>
    </contour>
    <contour>
      <point x="338" y="513" type="move" smooth="yes"/>
    </contour>
    <contour>
      <point x="315" y="0" type="move" smooth="yes"/>
    </contour>
  </outline>
</glyph>
<glyph name="o" format="1">
  <advance width="614"/>
  <unicode hex="006F"/>
  <outline>
    <contour>
      <point x="46" y="256" type="curve" smooth="yes"/>
      <point x="46" y="96"/>
      <point x="152" y="-11"/>
      <point x="311" y="-11" type="curve" smooth="yes"/>
      <point x="467" y="-11"/>
      <point x="571" y="96"/>
      <point x="571" y="256" type="curve" smooth="yes"/>
      <point x="571" y="416"/>
      <point x="466" y="524"/>
      <point x="310" y="524" type="curve" smooth="yes"/>
      <point x="152" y="524"/>
      <point x="46" y="417"/>
    </contour>
    <contour>
      <point x="486" y="256" type="curve" smooth="yes"/>
      <point x="486" y="138"/>
      <point x="416" y="58"/>
      <point x="311" y="58" type="curve" smooth="yes"/>
      <point x="203" y="58"/>
      <point x="131" y="136"/>
      <point x="131" y="254" type="curve" smooth="yes"/>
      <point x="131" y="374"/>
      <point x="202" y="454"/>
      <point x="310" y="454" type="curve" smooth="yes"/>
      <point x="416" y="454"/>
      <point x="486" y="375"/>
    </contour>
    <contour>
      <point x="310" y="513" type="move" smooth="yes"/>
    </contour>
  </outline>
</glyph>
<glyph name="p" format="1">
  <advance width="625"/>
  <unicode hex="0070"/>
  <outline>
    <contour>
      <point x="158" y="420" type="curve"/>
      <point x="154" y="460"/>
      <point x="136" y="494"/>
      <point x="110" y="513" type="curve"/>
      <point x="41" y="474" type="line"/>
      <point x="67" y="446"/>
      <point x="86" y="407"/>
      <point x="86" y="359" type="curve" smooth="yes"/>
      <point x="86" y="-228" type="line"/>
      <point x="168" y="-220" type="line"/>
      <point x="168" y="48" type="line"/>
      <point x="206" y="11"/>
      <point x="277" y="-11"/>
      <point x="347" y="-11" type="curve" smooth="yes"/>
      <point x="494" y="-11"/>
      <point x="580" y="92"/>
      <point x="580" y="264" type="curve" smooth="yes"/>
      <point x="580" y="428"/>
      <point x="496" y="524"/>
      <point x="352" y="524" type="curve" smooth="yes"/>
      <point x="270" y="524"/>
      <point x="194" y="486"/>
    </contour>
    <contour>
      <point x="496" y="260" type="curve" smooth="yes"/>
      <point x="496" y="132"/>
      <point x="436" y="58"/>
      <point x="335" y="58" type="curve" smooth="yes"/>
      <point x="268" y="58"/>
      <point x="202" y="86"/>
      <point x="168" y="134" type="curve"/>
      <point x="168" y="217" type="line" smooth="yes"/>
      <point x="168" y="365"/>
      <point x="239" y="454"/>
      <point x="348" y="454" type="curve" smooth="yes"/>
      <point x="441" y="454"/>
      <point x="496" y="382"/>
    </contour>
  </outline>
</glyph>
<glyph name="q" format="1">
  <advance width="619"/>
  <unicode hex="0071"/>
  <outline>
    <contour>
      <point x="46" y="253" type="curve" smooth="yes"/>
      <point x="46" y="101"/>
      <point x="134" y="-11"/>
      <point x="286" y="-11" type="curve" smooth="yes"/>
      <point x="357" y="-11"/>
      <point x="415" y="16"/>
      <point x="454" y="64" type="curve"/>
      <point x="454" y="-213" type="line"/>
      <point x="512" y="-270" type="line"/>
      <point x="536" y="-258"/>
      <point x="680" y="-182"/>
      <point x="698" y="-172" type="curve"/>
      <point x="662" y="-110" type="line"/>
      <point x="662" y="-110"/>
      <point x="556" y="-168"/>
      <point x="536" y="-178" type="curve"/>
      <point x="536" y="406" type="line" smooth="yes"/>
      <point x="536" y="458"/>
      <point x="544" y="496"/>
      <point x="546" y="513" type="curve"/>
      <point x="462" y="513" type="line"/>
      <point x="454" y="444" type="line"/>
      <point x="426" y="492"/>
      <point x="386" y="524"/>
      <point x="292" y="524" type="curve" smooth="yes"/>
      <point x="137" y="524"/>
      <point x="46" y="407"/>
    </contour>
    <contour>
      <point x="454" y="272" type="curve" smooth="yes"/>
      <point x="454" y="151" type="line"/>
      <point x="428" y="106"/>
      <point x="361" y="58"/>
      <point x="294" y="58" type="curve" smooth="yes"/>
      <point x="182" y="58"/>
      <point x="131" y="142"/>
      <point x="131" y="254" type="curve" smooth="yes"/>
      <point x="131" y="368"/>
      <point x="180" y="454"/>
      <point x="294" y="454" type="curve" smooth="yes"/>
      <point x="402" y="454"/>
      <point x="454" y="380"/>
    </contour>
  </outline>
</glyph>
<glyph name="r" format="1">
  <advance width="395"/>
  <unicode hex="0072"/>
  <outline>
    <contour>
      <point x="166" y="426" type="curve"/>
      <point x="92" y="390" type="line"/>
      <point x="174" y="284" type="line"/>
      <point x="174" y="402"/>
      <point x="237" y="454"/>
      <point x="310" y="454" type="curve" smooth="yes"/>
      <point x="352" y="454"/>
      <point x="374" y="445"/>
      <point x="382" y="442" type="curve"/>
      <point x="389" y="514" type="line"/>
      <point x="371" y="519"/>
      <point x="354" y="524"/>
      <point x="312" y="524" type="curve" smooth="yes"/>
      <point x="248" y="524"/>
      <point x="192" y="480"/>
    </contour>
    <contour>
      <point x="45" y="487" type="line"/>
      <point x="68" y="449"/>
      <point x="92" y="408"/>
      <point x="92" y="350" type="curve" smooth="yes"/>
      <point x="92" y="0" type="line"/>
      <point x="174" y="0" type="line"/>
      <point x="174" y="326" type="line"/>
      <point x="168" y="406" type="line"/>
      <point x="168" y="448"/>
      <point x="150" y="480"/>
      <point x="128" y="513" type="curve"/>
    </contour>
    <contour>
      <point x="246" y="513" type="move" smooth="yes"/>
    </contour>
    <contour>
      <point x="200" y="0" type="move" smooth="yes"/>
    </contour>
  </outline>
</glyph>
<glyph name="s" format="1">
  <advance width="447"/>
  <unicode hex="0073"/>
  <outline>
    <contour>
      <point x="56" y="386" type="curve" smooth="yes"/>
      <point x="53" y="226"/>
      <point x="326" y="235"/>
      <point x="326" y="130" type="curve" smooth="yes"/>
      <point x="326" y="78"/>
      <point x="281" y="58"/>
      <point x="226" y="58" type="curve" smooth="yes"/>
      <point x="176" y="58"/>
      <point x="117" y="76"/>
      <point x="79" y="106" type="curve"/>
      <point x="54" y="36" type="line"/>
      <point x="91" y="16"/>
      <point x="154" y="-11"/>
      <point x="232" y="-11" type="curve" smooth="yes"/>
      <point x="337" y="-11"/>
      <point x="404" y="50"/>
      <point x="406" y="138" type="curve" smooth="yes"/>
      <point x="410" y="297"/>
      <point x="136" y="294"/>
      <point x="136" y="388" type="curve" smooth="yes"/>
      <point x="136" y="430"/>
      <point x="172" y="454"/>
      <point x="230" y="454" type="curve" smooth="yes"/>
      <point x="272" y="454"/>
      <point x="324" y="438"/>
      <point x="366" y="416" type="curve"/>
      <point x="388" y="484" type="line"/>
      <point x="346" y="506"/>
      <point x="292" y="524"/>
      <point x="226" y="524" type="curve" smooth="yes"/>
      <point x="123" y="524"/>
      <point x="58" y="471"/>
    </contour>
    <contour>
      <point x="228" y="513" type="move" smooth="yes"/>
    </contour>
    <contour>
      <point x="228" y="0" type="move" smooth="yes"/>
    </contour>
  </outline>
</glyph>
<glyph name="t" format="1">
  <advance width="409"/>
  <unicode hex="0074"/>
  <outline>
    <contour>
      <point x="116" y="649" type="line"/>
      <point x="116" y="513" type="line"/>
      <point x="12" y="513" type="line"/>
      <point x="12" y="460" type="line"/>
      <point x="114" y="460" type="line"/>
      <point x="114" y="150" type="line" smooth="yes"/>
      <point x="114" y="42"/>
      <point x="164" y="-4"/>
      <point x="280" y="-4" type="curve" smooth="yes"/>
      <point x="308" y="-4"/>
      <point x="364" y="7"/>
      <point x="396" y="18" type="curve"/>
      <point x="386" y="79" type="line"/>
      <point x="362" y="70"/>
      <point x="313" y="60"/>
      <point x="290" y="60" type="curve" smooth="yes"/>
      <point x="225" y="60"/>
      <point x="196" y="87"/>
      <point x="196" y="149" type="curve" smooth="yes"/>
      <point x="196" y="460" type="line"/>
      <point x="364" y="460" type="line"/>
      <point x="364" y="513" type="line"/>
      <point x="196" y="513" type="line"/>
      <point x="196" y="672" type="line"/>
    </contour>
    <contour>
      <point x="159" y="322" type="move" smooth="yes"/>
    </contour>
    <contour>
      <point x="277" y="0" type="move" smooth="yes"/>
    </contour>
  </outline>
</glyph>
<glyph name="u" format="1">
  <advance width="598"/>
  <unicode hex="0075"/>
  <outline>
    <contour>
      <point x="425" y="513" type="line"/>
      <point x="425" y="214" type="line" smooth="yes"/>
      <point x="425" y="116"/>
      <point x="356" y="58"/>
      <point x="274" y="58" type="curve" smooth="yes"/>
      <point x="214" y="58"/>
      <point x="153" y="84"/>
      <point x="155" y="182" type="curve" smooth="yes"/>
      <point x="158" y="298" type="line" smooth="yes"/>
      <point x="162" y="471"/>
      <point x="128" y="513"/>
      <point x="128" y="513" type="curve"/>
      <point x="46" y="500" type="line"/>
      <point x="46" y="500"/>
      <point x="80" y="451"/>
      <point x="76" y="291" type="curve" smooth="yes"/>
      <point x="72" y="182" type="line" smooth="yes"/>
      <point x="68" y="40"/>
      <point x="164" y="-11"/>
      <point x="261" y="-11" type="curve" smooth="yes"/>
      <point x="340" y="-11"/>
      <point x="400" y="20"/>
      <point x="438" y="82" type="curve"/>
      <point x="444" y="22"/>
      <point x="492" y="-17"/>
      <point x="570" y="-2" type="curve"/>
      <point x="578" y="68" type="line"/>
      <point x="532" y="58"/>
      <point x="507" y="78"/>
      <point x="507" y="151" type="curve" smooth="yes"/>
      <point x="507" y="513" type="line"/>
    </contour>
    <contour>
      <point x="542" y="5" type="move" smooth="yes"/>
    </contour>
    <contour>
      <point x="300" y="513" type="move" smooth="yes"/>
    </contour>
  </outline>
</glyph>
<glyph name="v" format="1">
  <advance width="530"/>
  <unicode hex="0076"/>
  <outline>
    <contour>
      <point x="434" y="513" type="line"/>
      <point x="296" y="168" type="line"/>
      <point x="290" y="154"/>
      <point x="284" y="132"/>
      <point x="268" y="82" type="curve"/>
      <point x="260" y="109"/>
      <point x="250" y="145"/>
      <point x="240" y="168" type="curve" smooth="yes"/>
      <point x="99" y="513" type="line"/>
      <point x="8" y="513" type="line"/>
      <point x="222" y="0" type="line"/>
      <point x="306" y="0" type="line"/>
      <point x="523" y="513" type="line"/>
    </contour>
  </outline>
</glyph>
<glyph name="w" format="1">
  <advance width="843"/>
  <unicode hex="0077"/>
  <outline>
    <contour>
      <point x="746" y="513" type="line"/>
      <point x="626" y="144" type="line"/>
      <point x="620" y="128"/>
      <point x="616" y="109"/>
      <point x="610" y="94" type="curve"/>
      <point x="605" y="109"/>
      <point x="600" y="129"/>
      <point x="595" y="143" type="curve" smooth="yes"/>
      <point x="471" y="513" type="line"/>
      <point x="388" y="513" type="line"/>
      <point x="256" y="138" type="line"/>
      <point x="250" y="124"/>
      <point x="245" y="107"/>
      <point x="240" y="93" type="curve"/>
      <point x="235" y="109"/>
      <point x="231" y="128"/>
      <point x="226" y="142" type="curve" smooth="yes"/>
      <point x="101" y="513" type="line"/>
      <point x="13" y="513" type="line"/>
      <point x="196" y="0" type="line"/>
      <point x="276" y="0" type="line"/>
      <point x="426" y="416" type="line"/>
      <point x="567" y="0" type="line"/>
      <point x="647" y="0" type="line"/>
      <point x="831" y="513" type="line"/>
    </contour>
    <contour>
      <point x="429" y="513" type="move" smooth="yes"/>
    </contour>
  </outline>
</glyph>
<glyph name="x" format="1">
  <advance width="542"/>
  <unicode hex="0078"/>
  <outline>
    <contour>
      <point x="424" y="513" type="line"/>
      <point x="279" y="313" type="line"/>
      <point x="135" y="513" type="line"/>
      <point x="34" y="513" type="line"/>
      <point x="224" y="257" type="line"/>
      <point x="24" y="0" type="line"/>
      <point x="119" y="0" type="line"/>
      <point x="271" y="204" type="line"/>
      <point x="419" y="0" type="line"/>
      <point x="520" y="0" type="line"/>
      <point x="324" y="259" type="line"/>
      <point x="513" y="513" type="line"/>
    </contour>
  </outline>
</glyph>
<glyph name="y" format="1">
  <advance width="592"/>
  <unicode hex="0079"/>
  <outline>
    <contour>
      <point x="431" y="72" type="line"/>
      <point x="431" y="-22" type="line" smooth="yes"/>
      <point x="431" y="-116"/>
      <point x="360" y="-178"/>
      <point x="256" y="-178" type="curve" smooth="yes"/>
      <point x="212" y="-178"/>
      <point x="151" y="-163"/>
      <point x="105" y="-140" type="curve"/>
      <point x="96" y="-216" type="line"/>
      <point x="146" y="-234"/>
      <point x="214" y="-247"/>
      <point x="264" y="-247" type="curve" smooth="yes"/>
      <point x="414" y="-247"/>
      <point x="513" y="-154"/>
      <point x="513" y="-12" type="curve" smooth="yes"/>
      <point x="513" y="513" type="line"/>
    </contour>
    <contour>
      <point x="431" y="513" type="line"/>
      <point x="431" y="214" type="line" smooth="yes"/>
      <point x="431" y="116"/>
      <point x="362" y="58"/>
      <point x="280" y="58" type="curve" smooth="yes"/>
      <point x="220" y="58"/>
      <point x="159" y="84"/>
      <point x="161" y="182" type="curve" smooth="yes"/>
      <point x="164" y="298" type="line" smooth="yes"/>
      <point x="168" y="471"/>
      <point x="134" y="513"/>
      <point x="134" y="513" type="curve"/>
      <point x="52" y="500" type="line"/>
      <point x="52" y="500"/>
      <point x="86" y="451"/>
      <point x="82" y="291" type="curve" smooth="yes"/>
      <point x="78" y="182" type="line" smooth="yes"/>
      <point x="74" y="40"/>
      <point x="170" y="-11"/>
      <point x="267" y="-11" type="curve" smooth="yes"/>
      <point x="346" y="-11"/>
      <point x="406" y="20"/>
      <point x="444" y="82" type="curve"/>
      <point x="513" y="151" type="line"/>
      <point x="513" y="513" type="line"/>
    </contour>
    <contour>
      <point x="283" y="513" type="move" smooth="yes"/>
    </contour>
  </outline>
</glyph>
<glyph name="z" format="1">
  <advance width="488"/>
  <unicode hex="007A"/>
  <outline>
    <contour>
      <point x="53" y="513" type="line"/>
      <point x="53" y="446" type="line"/>
      <point x="340" y="446" type="line"/>
      <point x="40" y="44" type="line"/>
      <point x="40" y="0" type="line"/>
      <point x="460" y="0" type="line"/>
      <point x="460" y="67" type="line"/>
      <point x="152" y="67" type="line"/>
      <point x="452" y="470" type="line"/>
      <point x="452" y="513" type="line"/>
    </contour>
    <contour>
      <point x="249" y="0" type="move" smooth="yes"/>
    </contour>
  </outline>
</glyph>
<glyph name="braceleft" format="1">
  <advance width="312"/>
  <unicode hex="007B"/>
  <outline>
    <contour>
      <point x="283" y="-130" type="curve"/>
      <point x="283" y="-66" type="line"/>
      <point x="213" y="-66"/>
      <point x="202" y="-30"/>
      <point x="202" y="54" type="curve"/>
      <point x="202" y="172" type="line"/>
      <point x="202" y="252"/>
      <point x="195" y="280"/>
      <point x="43" y="338" type="curve"/>
      <point x="43" y="277" type="line"/>
      <point x="111" y="270"/>
      <point x="122" y="221"/>
      <point x="122" y="147" type="curve" smooth="yes"/>
      <point x="122" y="6" type="line" smooth="yes"/>
      <point x="122" y="-91"/>
      <point x="190" y="-126"/>
    </contour>
    <contour>
      <point x="122" y="468" type="line" smooth="yes"/>
      <point x="122" y="394"/>
      <point x="111" y="345"/>
      <point x="43" y="338" type="curve"/>
      <point x="43" y="276" type="line"/>
      <point x="195" y="334"/>
      <point x="202" y="362"/>
      <point x="202" y="442" type="curve"/>
      <point x="202" y="561" type="line"/>
      <point x="202" y="645"/>
      <point x="213" y="681"/>
      <point x="283" y="681" type="curve"/>
      <point x="283" y="744" type="line"/>
      <point x="190" y="740"/>
      <point x="122" y="706"/>
      <point x="122" y="609" type="curve" smooth="yes"/>
    </contour>
  </outline>
</glyph>
<glyph name="braceright" format="1">
  <advance width="312"/>
  <unicode hex="007D"/>
  <outline>
    <contour>
      <point x="204" y="147" type="line" smooth="yes"/>
      <point x="204" y="221"/>
      <point x="215" y="270"/>
      <point x="283" y="277" type="curve"/>
      <point x="283" y="338" type="line"/>
      <point x="131" y="280"/>
      <point x="124" y="252"/>
      <point x="124" y="172" type="curve"/>
      <point x="124" y="54" type="line"/>
      <point x="124" y="-30"/>
      <point x="113" y="-66"/>
      <point x="43" y="-66" type="curve"/>
      <point x="43" y="-130" type="line"/>
      <point x="136" y="-126"/>
      <point x="204" y="-91"/>
      <point x="204" y="6" type="curve" smooth="yes"/>
    </contour>
    <contour>
      <point x="43" y="744" type="curve"/>
      <point x="43" y="681" type="line"/>
      <point x="113" y="681"/>
      <point x="124" y="645"/>
      <point x="124" y="561" type="curve"/>
      <point x="124" y="442" type="line"/>
      <point x="124" y="362"/>
      <point x="131" y="334"/>
      <point x="283" y="276" type="curve"/>
      <point x="283" y="338" type="line"/>
      <point x="215" y="345"/>
      <point x="204" y="394"/>
      <point x="204" y="468" type="curve" smooth="yes"/>
      <point x="204" y="609" type="line" smooth="yes"/>
      <point x="204" y="706"/>
      <point x="136" y="740"/>
    </contour>
  </outline>
</glyph>
<glyph name="asciitilde" format="1">
  <advance width="728"/>
  <unicode hex="007E"/>
  <outline>
    <contour>
      <point x="152" y="192" type="line"/>
      <point x="162" y="237"/>
      <point x="192" y="286"/>
      <point x="247" y="286" type="curve" smooth="yes"/>
      <point x="257" y="286"/>
      <point x="269" y="284"/>
      <point x="282" y="280" type="curve" smooth="yes"/>
      <point x="325" y="266"/>
      <point x="365" y="244"/>
      <point x="405" y="226" type="curve" smooth="yes"/>
      <point x="426" y="216"/>
      <point x="452" y="205"/>
      <point x="478" y="205" type="curve" smooth="yes"/>
      <point x="498" y="205"/>
      <point x="516" y="208"/>
      <point x="532" y="215" type="curve" smooth="yes"/>
      <point x="583" y="237"/>
      <point x="614" y="283"/>
      <point x="628" y="342" type="curve"/>
      <point x="566" y="362" type="line"/>
      <point x="556" y="321"/>
      <point x="528" y="272"/>
      <point x="478" y="272" type="curve" smooth="yes"/>
      <point x="470" y="272"/>
      <point x="461" y="274"/>
      <point x="450" y="278" type="curve" smooth="yes"/>
      <point x="410" y="293"/>
      <point x="369" y="316"/>
      <point x="329" y="332" type="curve" smooth="yes"/>
      <point x="305" y="342"/>
      <point x="276" y="352"/>
      <point x="246" y="352" type="curve" smooth="yes"/>
      <point x="225" y="352"/>
      <point x="205" y="350"/>
      <point x="188" y="342" type="curve" smooth="yes"/>
      <point x="140" y="321"/>
      <point x="106" y="276"/>
      <point x="94" y="220" type="curve"/>
    </contour>
  </outline>
</glyph>
<glyph name="sterling" format="1">
  <advance width="593"/>
  <unicode hex="00A3"/>
  <outline>
    <contour>
      <point x="58" y="0" type="line"/>
      <point x="540" y="0" type="line"/>
      <point x="540" y="70" type="line"/>
      <point x="185" y="70" type="line"/>
      <point x="193" y="76"/>
      <point x="200" y="85"/>
      <point x="206" y="97" type="curve" smooth="yes"/>
      <point x="234" y="153"/>
      <point x="234" y="238"/>
      <point x="234" y="320" type="curve" smooth="yes"/>
      <point x="234" y="345" type="line"/>
      <point x="399" y="345" type="line"/>
      <point x="399" y="416" type="line"/>
      <point x="233" y="416" type="line"/>
      <point x="232" y="474" type="line"/>
      <point x="232" y="578"/>
      <point x="264" y="654"/>
      <point x="368" y="654" type="curve" smooth="yes"/>
      <point x="424" y="654"/>
      <point x="470" y="640"/>
      <point x="505" y="618" type="curve"/>
      <point x="531" y="678" type="line"/>
      <point x="493" y="708"/>
      <point x="438" y="724"/>
      <point x="366" y="724" type="curve" smooth="yes"/>
      <point x="190" y="724"/>
      <point x="147" y="605"/>
      <point x="147" y="430" type="curve" smooth="yes"/>
      <point x="147" y="425"/>
      <point x="148" y="421"/>
      <point x="148" y="416" type="curve"/>
      <point x="57" y="416" type="line"/>
      <point x="57" y="345" type="line"/>
      <point x="148" y="345" type="line"/>
      <point x="148" y="220" type="line" smooth="yes"/>
      <point x="148" y="136"/>
      <point x="109" y="99"/>
      <point x="57" y="69" type="curve"/>
    </contour>
  </outline>
</glyph>
<glyph name="currency" format="1">
  <advance width="618"/>
  <unicode hex="00A4"/>
  <outline>
    <contour>
      <point x="78" y="98" type="line"/>
      <point x="172" y="194" type="line"/>
      <point x="156" y="214" type="line"/>
      <point x="60" y="116" type="line"/>
    </contour>
    <contour>
      <point x="150" y="438" type="line"/>
      <point x="171" y="456" type="line"/>
      <point x="72" y="552" type="line"/>
      <point x="53" y="532" type="line"/>
    </contour>
    <contour>
      <point x="282" y="176" type="curve" smooth="yes"/>
      <point x="198" y="176"/>
      <point x="132" y="245"/>
      <point x="132" y="329" type="curve" smooth="yes"/>
      <point x="132" y="413"/>
      <point x="202" y="484"/>
      <point x="286" y="482" type="curve" smooth="yes"/>
      <point x="370" y="480"/>
      <point x="434" y="410"/>
      <point x="432" y="326" type="curve" smooth="yes"/>
      <point x="430" y="242"/>
      <point x="366" y="176"/>
    </contour>
    <contour>
      <point x="283" y="137" type="curve" smooth="yes"/>
      <point x="389" y="137"/>
      <point x="476" y="220"/>
      <point x="478" y="326" type="curve" smooth="yes"/>
      <point x="480" y="432"/>
      <point x="394" y="522"/>
      <point x="288" y="524" type="curve" smooth="yes"/>
      <point x="182" y="526"/>
      <point x="88" y="436"/>
      <point x="88" y="330" type="curve" smooth="yes"/>
      <point x="88" y="224"/>
      <point x="177" y="137"/>
    </contour>
    <contour>
      <point x="497" y="105" type="line"/>
      <point x="516" y="123" type="line"/>
      <point x="418" y="217" type="line"/>
      <point x="400" y="198" type="line"/>
    </contour>
    <contour>
      <point x="414" y="444" type="line"/>
      <point x="508" y="540" type="line"/>
      <point x="488" y="560" type="line"/>
      <point x="394" y="462" type="line"/>
    </contour>
  </outline>
</glyph>
<glyph name="yen" format="1">
  <advance width="632"/>
  <unicode hex="00A5"/>
  <outline>
    <component base="Y"/>
    <contour>
      <point x="74" y="142" type="line"/>
      <point x="551" y="142" type="line"/>
      <point x="551" y="212" type="line"/>
      <point x="348" y="212" type="line"/>
      <point x="348" y="287" type="line"/>
      <point x="550" y="287" type="line"/>
      <point x="550" y="358" type="line"/>
      <point x="70" y="358" type="line"/>
      <point x="70" y="287" type="line"/>
      <point x="277" y="287" type="line"/>
      <point x="277" y="212" type="line"/>
      <point x="74" y="212" type="line"/>
    </contour>
  </outline>
</glyph>
<glyph name="section" format="1">
  <advance width="547"/>
  <unicode hex="00A7"/>
  <outline>
    <contour>
      <point x="241" y="-24" type="curve" smooth="yes"/>
      <point x="297" y="-24"/>
      <point x="348" y="-9"/>
      <point x="382" y="15" type="curve" smooth="yes"/>
      <point x="415" y="38"/>
      <point x="444" y="73"/>
      <point x="444" y="126" type="curve" smooth="yes"/>
      <point x="444" y="189"/>
      <point x="404" y="218"/>
      <point x="362" y="240" type="curve"/>
      <point x="404" y="266"/>
      <point x="456" y="302"/>
      <point x="456" y="368" type="curve" smooth="yes"/>
      <point x="456" y="386"/>
      <point x="451" y="402"/>
      <point x="443" y="416" type="curve" smooth="yes"/>
      <point x="406" y="478"/>
      <point x="318" y="500"/>
      <point x="253" y="536" type="curve" smooth="yes"/>
      <point x="224" y="552"/>
      <point x="196" y="570"/>
      <point x="196" y="610" type="curve" smooth="yes"/>
      <point x="196" y="664"/>
      <point x="250" y="678"/>
      <point x="304" y="678" type="curve" smooth="yes"/>
      <point x="346" y="678"/>
      <point x="387" y="666"/>
      <point x="417" y="652" type="curve"/>
      <point x="416" y="726" type="line"/>
      <point x="378" y="738"/>
      <point x="348" y="746"/>
      <point x="302" y="746" type="curve" smooth="yes"/>
      <point x="202" y="746"/>
      <point x="110" y="708"/>
      <point x="110" y="608" type="curve" smooth="yes"/>
      <point x="110" y="544"/>
      <point x="145" y="514"/>
      <point x="187" y="488" type="curve"/>
      <point x="143" y="466"/>
      <point x="92" y="429"/>
      <point x="92" y="364" type="curve" smooth="yes"/>
      <point x="92" y="348"/>
      <point x="95" y="334"/>
      <point x="101" y="320" type="curve" smooth="yes"/>
      <point x="120" y="274"/>
      <point x="163" y="247"/>
      <point x="210" y="227" type="curve" smooth="yes"/>
      <point x="252" y="209" type="line" smooth="yes"/>
      <point x="268" y="202"/>
      <point x="284" y="196"/>
      <point x="297" y="190" type="curve" smooth="yes"/>
      <point x="326" y="176"/>
      <point x="358" y="162"/>
      <point x="358" y="122" type="curve" smooth="yes"/>
      <point x="358" y="111"/>
      <point x="356" y="101"/>
      <point x="350" y="91" type="curve" smooth="yes"/>
      <point x="332" y="59"/>
      <point x="288" y="44"/>
      <point x="238" y="44" type="curve" smooth="yes"/>
      <point x="186" y="44"/>
      <point x="147" y="58"/>
      <point x="105" y="76" type="curve"/>
      <point x="106" y="2" type="line"/>
      <point x="144" y="-14"/>
      <point x="190" y="-24"/>
    </contour>
    <contour>
      <point x="296" y="274" type="curve"/>
      <point x="279" y="281"/>
      <point x="263" y="288"/>
      <point x="249" y="294" type="curve" smooth="yes"/>
      <point x="217" y="308"/>
      <point x="181" y="326"/>
      <point x="181" y="370" type="curve" smooth="yes"/>
      <point x="181" y="415"/>
      <point x="218" y="440"/>
      <point x="248" y="456" type="curve"/>
      <point x="288" y="434"/>
      <point x="366" y="424"/>
      <point x="366" y="362" type="curve" smooth="yes"/>
      <point x="366" y="352"/>
      <point x="364" y="342"/>
      <point x="360" y="334" type="curve" smooth="yes"/>
      <point x="346" y="308"/>
      <point x="320" y="290"/>
    </contour>
  </outline>
</glyph>
<glyph name="dieresis" format="1">
  <advance width="370"/>
  <unicode hex="00A8"/>
  <outline>
    <contour>
      <point x="60" y="592" type="line"/>
      <point x="142" y="592" type="line"/>
      <point x="142" y="673" type="line"/>
      <point x="60" y="673" type="line"/>
    </contour>
    <contour>
      <point x="226" y="592" type="line"/>
      <point x="308" y="592" type="line"/>
      <point x="308" y="673" type="line"/>
      <point x="226" y="673" type="line"/>
    </contour>
    <contour>
      <point x="184" y="513" type="move" smooth="yes"/>
    </contour>
  </outline>
</glyph>
<glyph name="copyright" format="1">
  <advance width="913"/>
  <unicode hex="00A9"/>
  <outline>
    <contour>
      <point x="470" y="124" type="curve" smooth="yes"/>
      <point x="530" y="124"/>
      <point x="581" y="140"/>
      <point x="624" y="170" type="curve"/>
      <point x="605" y="230" type="line"/>
      <point x="575" y="206"/>
      <point x="536" y="190"/>
      <point x="486" y="190" type="curve" smooth="yes"/>
      <point x="456" y="190"/>
      <point x="430" y="195"/>
      <point x="408" y="204" type="curve" smooth="yes"/>
      <point x="348" y="229"/>
      <point x="306" y="282"/>
      <point x="306" y="366" type="curve" smooth="yes"/>
      <point x="306" y="390"/>
      <point x="310" y="413"/>
      <point x="318" y="434" type="curve" smooth="yes"/>
      <point x="340" y="494"/>
      <point x="391" y="540"/>
      <point x="472" y="540" type="curve" smooth="yes"/>
      <point x="526" y="540"/>
      <point x="571" y="524"/>
      <point x="607" y="492" type="curve"/>
      <point x="622" y="552" type="line"/>
      <point x="582" y="586"/>
      <point x="534" y="604"/>
      <point x="476" y="604" type="curve" smooth="yes"/>
      <point x="439" y="604"/>
      <point x="405" y="598"/>
      <point x="375" y="586" type="curve" smooth="yes"/>
      <point x="291" y="553"/>
      <point x="230" y="479"/>
      <point x="230" y="364" type="curve" smooth="yes"/>
      <point x="230" y="330"/>
      <point x="236" y="300"/>
      <point x="248" y="271" type="curve" smooth="yes"/>
      <point x="282" y="189"/>
      <point x="356" y="124"/>
    </contour>
    <contour>
      <point x="457" y="-16" type="curve" smooth="yes"/>
      <point x="581" y="-16"/>
      <point x="674" y="34"/>
      <point x="740" y="96" type="curve" smooth="yes"/>
      <point x="804" y="156"/>
      <point x="858" y="242"/>
      <point x="858" y="362" type="curve" smooth="yes"/>
      <point x="858" y="396"/>
      <point x="854" y="430"/>
      <point x="844" y="462" type="curve" smooth="yes"/>
      <point x="824" y="530"/>
      <point x="786" y="585"/>
      <point x="740" y="629" type="curve" smooth="yes"/>
      <point x="674" y="691"/>
      <point x="580" y="742"/>
      <point x="454" y="742" type="curve" smooth="yes"/>
      <point x="330" y="742"/>
      <point x="236" y="692"/>
      <point x="170" y="630" type="curve" smooth="yes"/>
      <point x="106" y="570"/>
      <point x="52" y="483"/>
      <point x="52" y="363" type="curve" smooth="yes"/>
      <point x="52" y="329"/>
      <point x="56" y="295"/>
      <point x="66" y="263" type="curve" smooth="yes"/>
      <point x="86" y="195"/>
      <point x="123" y="140"/>
      <point x="170" y="96" type="curve" smooth="yes"/>
      <point x="236" y="34"/>
      <point x="331" y="-16"/>
    </contour>
    <contour>
      <point x="456" y="42" type="curve" smooth="yes"/>
      <point x="352" y="42"/>
      <point x="269" y="82"/>
      <point x="213" y="135" type="curve" smooth="yes"/>
      <point x="159" y="187"/>
      <point x="115" y="264"/>
      <point x="115" y="364" type="curve" smooth="yes"/>
      <point x="115" y="464"/>
      <point x="159" y="540"/>
      <point x="213" y="591" type="curve" smooth="yes"/>
      <point x="269" y="643"/>
      <point x="351" y="683"/>
      <point x="454" y="683" type="curve" smooth="yes"/>
      <point x="558" y="683"/>
      <point x="641" y="642"/>
      <point x="697" y="590" type="curve" smooth="yes"/>
      <point x="751" y="538"/>
      <point x="795" y="462"/>
      <point x="795" y="362" type="curve" smooth="yes"/>
      <point x="795" y="262"/>
      <point x="752" y="186"/>
      <point x="698" y="135" type="curve" smooth="yes"/>
      <point x="642" y="83"/>
      <point x="560" y="42"/>
    </contour>
  </outline>
</glyph>
<glyph name="ordfeminine" format="1">
  <advance width="371"/>
  <unicode hex="00AA"/>
  <outline>
    <contour>
      <point x="158" y="384" type="curve" smooth="yes"/>
      <point x="208" y="384"/>
      <point x="246" y="402"/>
      <point x="268" y="430" type="curve"/>
      <point x="272" y="393" type="line"/>
      <point x="337" y="393" type="line"/>
      <point x="335" y="423"/>
      <point x="334" y="435"/>
      <point x="334" y="457" type="curve" smooth="yes"/>
      <point x="334" y="618" type="line"/>
      <point x="334" y="700"/>
      <point x="279" y="738"/>
      <point x="197" y="738" type="curve" smooth="yes"/>
      <point x="131" y="738"/>
      <point x="82" y="718"/>
      <point x="56" y="675" type="curve"/>
      <point x="89" y="638" type="line"/>
      <point x="111" y="670"/>
      <point x="144" y="684"/>
      <point x="194" y="684" type="curve" smooth="yes"/>
      <point x="249" y="684"/>
      <point x="268" y="665"/>
      <point x="268" y="610" type="curve" smooth="yes"/>
      <point x="268" y="606" type="line"/>
      <point x="231" y="601"/>
      <point x="191" y="601"/>
      <point x="154" y="596" type="curve"/>
      <point x="94" y="587"/>
      <point x="33" y="556"/>
      <point x="33" y="488" type="curve" smooth="yes"/>
      <point x="33" y="472"/>
      <point x="36" y="458"/>
      <point x="42" y="445" type="curve" smooth="yes"/>
      <point x="60" y="407"/>
      <point x="102" y="384"/>
    </contour>
    <contour>
      <point x="169" y="436" type="curve" smooth="yes"/>
      <point x="130" y="436"/>
      <point x="101" y="449"/>
      <point x="101" y="488" type="curve" smooth="yes"/>
      <point x="101" y="557"/>
      <point x="212" y="544"/>
      <point x="268" y="555" type="curve"/>
      <point x="268" y="542" type="line"/>
      <point x="265" y="480"/>
      <point x="234" y="436"/>
    </contour>
  </outline>
</glyph>
<glyph name="macron" format="1">
  <advance width="363"/>
  <unicode hex="00AF"/>
  <outline>
    <contour>
      <point x="40" y="592" type="line"/>
      <point x="326" y="592" type="line"/>
      <point x="326" y="658" type="line"/>
      <point x="40" y="658" type="line"/>
    </contour>
    <contour>
      <point x="182" y="513" type="move" smooth="yes"/>
    </contour>
  </outline>
</glyph>
<glyph name="degree" format="1">
  <advance width="421"/>
  <unicode hex="00B0"/>
  <outline>
    <contour>
      <point x="207" y="486" type="curve" smooth="yes"/>
      <point x="193" y="486"/>
      <point x="181" y="488"/>
      <point x="169" y="492" type="curve" smooth="yes"/>
      <point x="137" y="504"/>
      <point x="110" y="532"/>
      <point x="110" y="576" type="curve" smooth="yes"/>
      <point x="110" y="588"/>
      <point x="113" y="600"/>
      <point x="118" y="611" type="curve" smooth="yes"/>
      <point x="132" y="641"/>
      <point x="163" y="664"/>
      <point x="207" y="664" type="curve" smooth="yes"/>
      <point x="220" y="664"/>
      <point x="232" y="661"/>
      <point x="244" y="657" type="curve" smooth="yes"/>
      <point x="276" y="645"/>
      <point x="304" y="619"/>
      <point x="304" y="576" type="curve" smooth="yes"/>
      <point x="304" y="564"/>
      <point x="301" y="551"/>
      <point x="296" y="540" type="curve" smooth="yes"/>
      <point x="282" y="510"/>
      <point x="251" y="486"/>
    </contour>
    <contour>
      <point x="207" y="428" type="curve" smooth="yes"/>
      <point x="229" y="428"/>
      <point x="248" y="431"/>
      <point x="268" y="439" type="curve" smooth="yes"/>
      <point x="319" y="459"/>
      <point x="366" y="505"/>
      <point x="366" y="575" type="curve" smooth="yes"/>
      <point x="366" y="595"/>
      <point x="362" y="614"/>
      <point x="354" y="632" type="curve" smooth="yes"/>
      <point x="330" y="682"/>
      <point x="279" y="722"/>
      <point x="207" y="722" type="curve" smooth="yes"/>
      <point x="185" y="722"/>
      <point x="166" y="718"/>
      <point x="146" y="710" type="curve" smooth="yes"/>
      <point x="95" y="690"/>
      <point x="48" y="645"/>
      <point x="48" y="575" type="curve" smooth="yes"/>
      <point x="48" y="555"/>
      <point x="52" y="536"/>
      <point x="60" y="518" type="curve" smooth="yes"/>
      <point x="84" y="468"/>
      <point x="135" y="428"/>
    </contour>
  </outline>
</glyph>
<glyph name="plusminus" format="1">
  <advance width="728"/>
  <unicode hex="00B1"/>
  <outline>
    <contour>
      <point x="324" y="112" type="line"/>
      <point x="399" y="112" type="line"/>
      <point x="399" y="298" type="line"/>
      <point x="622" y="298" type="line"/>
      <point x="622" y="366" type="line"/>
      <point x="397" y="366" type="line"/>
      <point x="397" y="554" type="line"/>
      <point x="322" y="554" type="line"/>
      <point x="322" y="366" type="line"/>
      <point x="94" y="366" type="line"/>
      <point x="100" y="298" type="line"/>
      <point x="324" y="298" type="line"/>
    </contour>
    <contour>
      <point x="100" y="0" type="line"/>
      <point x="624" y="0" type="line"/>
      <point x="624" y="69" type="line"/>
      <point x="100" y="69" type="line"/>
    </contour>
  </outline>
</glyph>
<glyph name="uni00B2" format="1">
  <advance width="1190"/>
  <unicode hex="00B2"/>
  <outline>
    <contour>
      <point x="283" y="604" type="line"/>
      <point x="829" y="604" type="line"/>
      <point x="829" y="722" type="line"/>
      <point x="465" y="722" type="line"/>
      <point x="557" y="802"/>
      <point x="650" y="879"/>
      <point x="724" y="968" type="curve" smooth="yes"/>
      <point x="778" y="1033"/>
      <point x="830" y="1108"/>
      <point x="830" y="1213" type="curve" smooth="yes"/>
      <point x="830" y="1248"/>
      <point x="823" y="1279"/>
      <point x="810" y="1307" type="curve" smooth="yes"/>
      <point x="771" y="1388"/>
      <point x="685" y="1440"/>
      <point x="567" y="1440" type="curve" smooth="yes"/>
      <point x="429" y="1440"/>
      <point x="334" y="1370"/>
      <point x="291" y="1270" type="curve"/>
      <point x="376" y="1192" type="line"/>
      <point x="409" y="1262"/>
      <point x="466" y="1323"/>
      <point x="561" y="1323" type="curve" smooth="yes"/>
      <point x="640" y="1323"/>
      <point x="701" y="1286"/>
      <point x="701" y="1211" type="curve" smooth="yes"/>
      <point x="701" y="1183"/>
      <point x="691" y="1152"/>
      <point x="670" y="1118" type="curve" smooth="yes"/>
      <point x="649" y="1084"/>
      <point x="621" y="1047"/>
      <point x="584" y="1006" type="curve" smooth="yes"/>
      <point x="495" y="908"/>
      <point x="389" y="812"/>
      <point x="283" y="715" type="curve"/>
    </contour>
  </outline>
</glyph>
<glyph name="acute" format="1">
  <advance width="302"/>
  <unicode hex="00B4"/>
  <outline>
    <contour>
      <point x="88" y="586" type="line"/>
      <point x="152" y="586" type="line"/>
      <point x="306" y="746" type="line"/>
      <point x="200" y="746" type="line"/>
    </contour>
    <contour>
      <point x="128" y="513" type="move" smooth="yes"/>
    </contour>
  </outline>
</glyph>
<glyph name="cedilla" format="1">
  <advance width="263"/>
  <unicode hex="00B8"/>
  <outline>
    <contour>
      <point x="114" y="-198" type="curve" smooth="yes"/>
      <point x="174" y="-198"/>
      <point x="234" y="-180"/>
      <point x="234" y="-120" type="curve" smooth="yes"/>
      <point x="234" y="-66"/>
      <point x="186" y="-47"/>
      <point x="134" y="-45" type="curve"/>
      <point x="130" y="-45" type="line"/>
      <point x="138" y="8" type="line"/>
      <point x="90" y="8" type="line"/>
      <point x="74" y="-86" type="line"/>
      <point x="90" y="-86" type="line" smooth="yes"/>
      <point x="96" y="-86"/>
      <point x="104" y="-84"/>
      <point x="108" y="-84" type="curve" smooth="yes"/>
      <point x="138" y="-84"/>
      <point x="162" y="-90"/>
      <point x="162" y="-120" type="curve" smooth="yes"/>
      <point x="162" y="-148"/>
      <point x="139" y="-156"/>
      <point x="106" y="-156" type="curve" smooth="yes"/>
      <point x="79" y="-156"/>
      <point x="55" y="-150"/>
      <point x="30" y="-144" type="curve"/>
      <point x="26" y="-187" type="line"/>
      <point x="53" y="-193"/>
      <point x="84" y="-198"/>
    </contour>
    <contour>
      <point x="130" y="0" type="move" smooth="yes"/>
    </contour>
  </outline>
</glyph>
<glyph name="uni00B9" format="1">
  <advance width="594"/>
  <unicode hex="00B9"/>
  <outline>
    <contour>
      <point x="135" y="302" type="line"/>
      <point x="318" y="302" type="line"/>
      <point x="318" y="360" type="line"/>
      <point x="256" y="360" type="line"/>
      <point x="256" y="714" type="line"/>
      <point x="204" y="706" type="line"/>
      <point x="178" y="690"/>
      <point x="154" y="676"/>
      <point x="120" y="666" type="curve"/>
      <point x="120" y="602" type="line"/>
      <point x="145" y="612"/>
      <point x="174" y="624"/>
      <point x="196" y="636" type="curve"/>
      <point x="196" y="584" type="line" smooth="yes"/>
      <point x="196" y="504" type="line" smooth="yes"/>
      <point x="196" y="362" type="line"/>
      <point x="135" y="362" type="line"/>
    </contour>
  </outline>
</glyph>
<glyph name="AE" format="1">
  <advance width="1013"/>
  <unicode hex="00C6"/>
  <outline>
    <contour>
      <point x="2" y="0" type="line"/>
      <point x="100" y="0" type="line"/>
      <point x="214" y="199" type="line"/>
      <point x="536" y="199" type="line"/>
      <point x="552" y="0" type="line"/>
      <point x="950" y="0" type="line"/>
      <point x="950" y="74" type="line"/>
      <point x="628" y="74" type="line"/>
      <point x="608" y="336" type="line"/>
      <point x="918" y="336" type="line"/>
      <point x="918" y="410" type="line"/>
      <point x="598" y="410" type="line"/>
      <point x="580" y="654" type="line"/>
      <point x="939" y="654" type="line"/>
      <point x="939" y="728" type="line"/>
      <point x="418" y="728" type="line"/>
    </contour>
    <contour>
      <point x="253" y="273" type="line"/>
      <point x="472" y="654" type="line"/>
      <point x="497" y="654" type="line"/>
      <point x="527" y="273" type="line"/>
    </contour>
    <contour>
      <point x="507" y="0" type="move" smooth="yes"/>
    </contour>
  </outline>
</glyph>
<glyph name="Eth" format="1">
  <advance width="1546"/>
  <unicode hex="00D0"/>
  <outline>
    <contour>
      <point x="365" y="148" type="line"/>
      <point x="365" y="658" type="line"/>
      <point x="571" y="658" type="line"/>
      <point x="571" y="795" type="line"/>
      <point x="365" y="795" type="line"/>
      <point x="365" y="1308" type="line"/>
      <point x="529" y="1308" type="line" smooth="yes"/>
      <point x="647" y="1308"/>
      <point x="750" y="1298"/>
      <point x="840" y="1278" type="curve" smooth="yes"/>
      <point x="1107" y="1218"/>
      <point x="1248" y="1048"/>
      <point x="1248" y="721" type="curve" smooth="yes"/>
      <point x="1248" y="638"/>
      <point x="1235" y="560"/>
      <point x="1210" y="490" type="curve" smooth="yes"/>
      <point x="1131" y="268"/>
      <point x="929" y="148"/>
      <point x="626" y="148" type="curve" smooth="yes"/>
    </contour>
    <contour>
      <point x="193" y="0" type="line"/>
      <point x="610" y="0" type="line" smooth="yes"/>
      <point x="739" y="0"/>
      <point x="854" y="17"/>
      <point x="956" y="51" type="curve" smooth="yes"/>
      <point x="1234" y="144"/>
      <point x="1430" y="359"/>
      <point x="1430" y="724" type="curve" smooth="yes"/>
      <point x="1430" y="1273"/>
      <point x="1056" y="1456"/>
      <point x="508" y="1456" type="curve" smooth="yes"/>
      <point x="193" y="1456" type="line"/>
      <point x="193" y="795" type="line"/>
      <point x="-1" y="795" type="line"/>
      <point x="-1" y="658" type="line"/>
      <point x="193" y="658" type="line"/>
    </contour>
  </outline>
</glyph>
<glyph name="Ocircumflex" format="1">
  <advance width="1660"/>
  <unicode hex="00D4"/>
  <outline>
    <contour>
      <point x="1097" y="197" type="curve"/>
      <point x="905" y="468" type="line"/>
      <point x="748" y="468" type="line"/>
      <point x="559" y="200" type="line"/>
      <point x="405" y="291"/>
      <point x="296" y="468"/>
      <point x="296" y="729" type="curve" smooth="yes"/>
      <point x="296" y="1128"/>
      <point x="552" y="1331"/>
      <point x="830" y="1331" type="curve" smooth="yes"/>
      <point x="1108" y="1331"/>
      <point x="1364" y="1128"/>
      <point x="1364" y="729" type="curve" smooth="yes"/>
      <point x="1364" y="466"/>
      <point x="1253" y="288"/>
    </contour>
    <contour>
      <point x="830" y="127" type="curve" smooth="yes"/>
      <point x="770" y="127"/>
      <point x="711" y="136"/>
      <point x="655" y="155" type="curve"/>
      <point x="824" y="360" type="line"/>
      <point x="995" y="152" type="line"/>
      <point x="942" y="135"/>
      <point x="887" y="127"/>
    </contour>
    <contour>
      <point x="830" y="-25" type="curve" smooth="yes"/>
      <point x="1304" y="-25"/>
      <point x="1548" y="336"/>
      <point x="1548" y="728" type="curve" smooth="yes"/>
      <point x="1548" y="1122"/>
      <point x="1304" y="1483"/>
      <point x="830" y="1483" type="curve" smooth="yes"/>
      <point x="356" y="1483"/>
      <point x="112" y="1122"/>
      <point x="112" y="728" type="curve" smooth="yes"/>
      <point x="112" y="336"/>
      <point x="356" y="-25"/>
    </contour>
  </outline>
</glyph>
<glyph name="multiply" format="1">
  <advance width="728"/>
  <unicode hex="00D7"/>
  <outline>
    <contour>
      <point x="212" y="77" type="line"/>
      <point x="361" y="225" type="line"/>
      <point x="509" y="77" type="line"/>
      <point x="561" y="129" type="line"/>
      <point x="412" y="277" type="line"/>
      <point x="561" y="425" type="line"/>
      <point x="509" y="477" type="line"/>
      <point x="361" y="328" type="line"/>
      <point x="212" y="477" type="line"/>
      <point x="161" y="426" type="line"/>
      <point x="309" y="277" type="line"/>
      <point x="161" y="128" type="line"/>
    </contour>
  </outline>
</glyph>
<glyph name="Oslash" format="1">
  <advance width="830"/>
  <unicode hex="00D8"/>
  <outline>
    <component base="O"/>
    <contour>
      <point x="260" y="-82" type="line"/>
      <point x="631" y="790" type="line"/>
      <point x="568" y="812" type="line"/>
      <point x="200" y="-60" type="line"/>
    </contour>
    <contour>
      <point x="416" y="728" type="move" smooth="yes"/>
    </contour>
  </outline>
</glyph>
<glyph name="Uacute" format="1">
  <advance width="1473"/>
  <unicode hex="00DA"/>
  <outline>
    <contour>
      <point x="749" y="-22" type="curve" smooth="yes"/>
      <point x="1111" y="-22"/>
      <point x="1307" y="191"/>
      <point x="1309" y="551" type="curve"/>
      <point x="1309" y="1456" type="line"/>
      <point x="1138" y="1456" type="line"/>
      <point x="1138" y="539" type="line" smooth="yes"/>
      <point x="1138" y="279"/>
      <point x="999" y="123"/>
      <point x="747" y="123" type="curve" smooth="yes"/>
      <point x="475" y="123"/>
      <point x="336" y="260"/>
      <point x="336" y="546" type="curve" smooth="yes"/>
      <point x="336" y="1456" type="line"/>
      <point x="164" y="1456" type="line"/>
      <point x="164" y="541" type="line" smooth="yes"/>
      <point x="164" y="157"/>
      <point x="365" y="-22"/>
    </contour>
    <contour>
      <point x="658" y="1602" type="line"/>
      <point x="788" y="1602" type="line"/>
      <point x="1096" y="1922" type="line"/>
      <point x="884" y="1922" type="line"/>
    </contour>
  </outline>
</glyph>
<glyph name="Udieresis" format="1">
  <advance width="1473"/>
  <unicode hex="00DC"/>
  <outline>
    <contour>
      <point x="749" y="-22" type="curve" smooth="yes"/>
      <point x="1111" y="-22"/>
      <point x="1307" y="191"/>
      <point x="1309" y="551" type="curve"/>
      <point x="1309" y="1456" type="line"/>
      <point x="1138" y="1456" type="line"/>
      <point x="1138" y="539" type="line" smooth="yes"/>
      <point x="1138" y="279"/>
      <point x="999" y="123"/>
      <point x="747" y="123" type="curve" smooth="yes"/>
      <point x="475" y="123"/>
      <point x="336" y="260"/>
      <point x="336" y="546" type="curve" smooth="yes"/>
      <point x="336" y="1456" type="line"/>
      <point x="164" y="1456" type="line"/>
      <point x="164" y="541" type="line" smooth="yes"/>
      <point x="164" y="157"/>
      <point x="365" y="-22"/>
    </contour>
    <contour>
      <point x="491" y="1613" type="line"/>
      <point x="655" y="1613" type="line"/>
      <point x="655" y="1776" type="line"/>
      <point x="491" y="1776" type="line"/>
    </contour>
    <contour>
      <point x="823" y="1613" type="line"/>
      <point x="987" y="1613" type="line"/>
      <point x="987" y="1776" type="line"/>
      <point x="823" y="1776" type="line"/>
    </contour>
  </outline>
</glyph>
<glyph name="germandbls" format="1">
  <advance width="627"/>
  <unicode hex="00DF"/>
  <outline>
    <contour>
      <point x="396" y="-12" type="curve" smooth="yes"/>
      <point x="420" y="-12"/>
      <point x="444" y="-6"/>
      <point x="467" y="2" type="curve" smooth="yes"/>
      <point x="532" y="26"/>
      <point x="586" y="82"/>
      <point x="586" y="170" type="curve" smooth="yes"/>
      <point x="586" y="203"/>
      <point x="580" y="232"/>
      <point x="566" y="257" type="curve" smooth="yes"/>
      <point x="526" y="331"/>
      <point x="448" y="373"/>
      <point x="361" y="399" type="curve" smooth="yes"/>
      <point x="351" y="402"/>
      <point x="346" y="405"/>
      <point x="346" y="408" type="curve" smooth="yes"/>
      <point x="346" y="414"/>
      <point x="356" y="417"/>
      <point x="360" y="419" type="curve" smooth="yes"/>
      <point x="394" y="434"/>
      <point x="426" y="458"/>
      <point x="452" y="484" type="curve" smooth="yes"/>
      <point x="478" y="510"/>
      <point x="506" y="546"/>
      <point x="506" y="596" type="curve" smooth="yes"/>
      <point x="506" y="618"/>
      <point x="501" y="638"/>
      <point x="492" y="658" type="curve" smooth="yes"/>
      <point x="462" y="720"/>
      <point x="394" y="756"/>
      <point x="302" y="756" type="curve" smooth="yes"/>
      <point x="268" y="756"/>
      <point x="237" y="750"/>
      <point x="210" y="740" type="curve" smooth="yes"/>
      <point x="134" y="710"/>
      <point x="87" y="642"/>
      <point x="87" y="536" type="curve" smooth="yes"/>
      <point x="88" y="0" type="line"/>
      <point x="170" y="0" type="line"/>
      <point x="170" y="163" type="line" smooth="yes"/>
      <point x="170" y="225"/>
      <point x="169" y="294"/>
      <point x="169" y="356" type="curve" smooth="yes"/>
      <point x="169" y="410"/>
      <point x="168" y="469"/>
      <point x="168" y="519" type="curve" smooth="yes"/>
      <point x="168" y="614"/>
      <point x="207" y="691"/>
      <point x="302" y="691" type="curve" smooth="yes"/>
      <point x="366" y="691"/>
      <point x="412" y="660"/>
      <point x="412" y="596" type="curve" smooth="yes"/>
      <point x="412" y="579"/>
      <point x="408" y="563"/>
      <point x="402" y="548" type="curve" smooth="yes"/>
      <point x="382" y="501"/>
      <point x="340" y="467"/>
      <point x="294" y="446" type="curve"/>
      <point x="286" y="378" type="line"/>
      <point x="336" y="350"/>
      <point x="389" y="321"/>
      <point x="429" y="285" type="curve" smooth="yes"/>
      <point x="462" y="256"/>
      <point x="493" y="219"/>
      <point x="493" y="161" type="curve" smooth="yes"/>
      <point x="493" y="99"/>
      <point x="456" y="54"/>
      <point x="394" y="54" type="curve" smooth="yes"/>
      <point x="340" y="54"/>
      <point x="298" y="87"/>
      <point x="268" y="122" type="curve"/>
      <point x="236" y="69" type="line"/>
      <point x="272" y="23"/>
      <point x="324" y="-12"/>
    </contour>
  </outline>
</glyph>
<glyph name="ae" format="1">
  <advance width="902"/>
  <unicode hex="00E6"/>
  <outline>
    <contour>
      <point x="220" y="-11" type="curve" smooth="yes"/>
      <point x="330" y="-11"/>
      <point x="392" y="47"/>
      <point x="426" y="115" type="curve"/>
      <point x="448" y="40"/>
      <point x="522" y="-11"/>
      <point x="616" y="-11" type="curve" smooth="yes"/>
      <point x="723" y="-11"/>
      <point x="791" y="33"/>
      <point x="832" y="103" type="curve"/>
      <point x="788" y="146" type="line"/>
      <point x="755" y="96"/>
      <point x="699" y="58"/>
      <point x="621" y="58" type="curve" smooth="yes"/>
      <point x="515" y="58"/>
      <point x="470" y="127"/>
      <point x="470" y="232" type="curve" smooth="yes"/>
      <point x="470" y="234"/>
      <point x="471" y="242"/>
      <point x="471" y="244" type="curve"/>
      <point x="848" y="244" type="line"/>
      <point x="848" y="262" type="line" smooth="yes"/>
      <point x="848" y="422"/>
      <point x="772" y="524"/>
      <point x="626" y="524" type="curve" smooth="yes"/>
      <point x="542" y="524"/>
      <point x="466" y="471"/>
      <point x="438" y="403" type="curve"/>
      <point x="417" y="478"/>
      <point x="358" y="524"/>
      <point x="275" y="524" type="curve" smooth="yes"/>
      <point x="177" y="524"/>
      <point x="108" y="492"/>
      <point x="74" y="428" type="curve"/>
      <point x="119" y="382" type="line"/>
      <point x="149" y="432"/>
      <point x="196" y="454"/>
      <point x="270" y="454" type="curve" smooth="yes"/>
      <point x="353" y="454"/>
      <point x="386" y="396"/>
      <point x="386" y="314" type="curve" smooth="yes"/>
      <point x="386" y="302" type="line"/>
      <point x="222" y="302"/>
      <point x="40" y="305"/>
      <point x="40" y="141" type="curve" smooth="yes"/>
      <point x="40" y="46"/>
      <point x="110" y="-11"/>
    </contour>
    <contour>
      <point x="232" y="58" type="curve" smooth="yes"/>
      <point x="168" y="58"/>
      <point x="125" y="81"/>
      <point x="125" y="145" type="curve" smooth="yes"/>
      <point x="125" y="231"/>
      <point x="221" y="240"/>
      <point x="314" y="243" type="curve"/>
      <point x="386" y="244" type="line"/>
      <point x="386" y="136"/>
      <point x="342" y="58"/>
    </contour>
    <contour>
      <point x="472" y="303" type="line"/>
      <point x="478" y="380"/>
      <point x="527" y="454"/>
      <point x="625" y="454" type="curve" smooth="yes"/>
      <point x="720" y="454"/>
      <point x="759" y="390"/>
      <point x="767" y="303" type="curve"/>
    </contour>
    <contour>
      <point x="452" y="0" type="move" smooth="yes"/>
    </contour>
  </outline>
</glyph>
<glyph name="ocircumflex" format="1">
  <advance width="1230"/>
  <unicode hex="00F4"/>
  <outline>
    <contour>
      <point x="317" y="1173" type="line"/>
      <point x="443" y="1173" type="line"/>
      <point x="621" y="1389" type="line"/>
      <point x="799" y="1173" type="line"/>
      <point x="931" y="1173" type="line"/>
      <point x="702" y="1497" type="line"/>
      <point x="545" y="1497" type="line"/>
    </contour>
    <contour>
      <point x="622" y="116" type="curve" smooth="yes"/>
      <point x="406" y="116"/>
      <point x="262" y="273"/>
      <point x="262" y="509" type="curve" smooth="yes"/>
      <point x="262" y="748"/>
      <point x="406" y="907"/>
      <point x="621" y="907" type="curve" smooth="yes"/>
      <point x="832" y="907"/>
      <point x="972" y="749"/>
      <point x="972" y="511" type="curve" smooth="yes"/>
      <point x="972" y="274"/>
      <point x="832" y="116"/>
    </contour>
    <contour>
      <point x="622" y="-22" type="curve" smooth="yes"/>
      <point x="934" y="-22"/>
      <point x="1142" y="192"/>
      <point x="1142" y="513" type="curve" smooth="yes"/>
      <point x="1142" y="834"/>
      <point x="934" y="1048"/>
      <point x="621" y="1048" type="curve" smooth="yes"/>
      <point x="304" y="1048"/>
      <point x="92" y="833"/>
      <point x="92" y="511" type="curve" smooth="yes"/>
      <point x="92" y="191"/>
      <point x="304" y="-22"/>
    </contour>
  </outline>
</glyph>
<glyph name="oslash" format="1">
  <advance width="1238"/>
  <unicode hex="00F8"/>
  <outline>
    <contour>
      <point x="346" y="-261" type="line"/>
      <point x="457" y="-1" type="line"/>
      <point x="508" y="-15"/>
      <point x="563" y="-22"/>
      <point x="622" y="-22" type="curve" smooth="yes"/>
      <point x="934" y="-22"/>
      <point x="1142" y="192"/>
      <point x="1142" y="513" type="curve" smooth="yes"/>
      <point x="1142" y="735"/>
      <point x="1042" y="906"/>
      <point x="878" y="990" type="curve"/>
      <point x="987" y="1245" type="line"/>
      <point x="884" y="1277" type="line"/>
      <point x="779" y="1028" type="line"/>
      <point x="730" y="1041"/>
      <point x="677" y="1048"/>
      <point x="621" y="1048" type="curve" smooth="yes"/>
      <point x="304" y="1048"/>
      <point x="92" y="833"/>
      <point x="92" y="511" type="curve" smooth="yes"/>
      <point x="92" y="290"/>
      <point x="192" y="121"/>
      <point x="359" y="37" type="curve"/>
      <point x="247" y="-229" type="line"/>
    </contour>
    <contour>
      <point x="418" y="175" type="line"/>
      <point x="320" y="241"/>
      <point x="262" y="359"/>
      <point x="262" y="509" type="curve" smooth="yes"/>
      <point x="262" y="748"/>
      <point x="406" y="907"/>
      <point x="621" y="907" type="curve" smooth="yes"/>
      <point x="657" y="907"/>
      <point x="691" y="903"/>
      <point x="722" y="894" type="curve"/>
    </contour>
    <contour>
      <point x="622" y="116" type="curve" smooth="yes"/>
      <point x="583" y="116"/>
      <point x="547" y="121"/>
      <point x="513" y="131" type="curve"/>
      <point x="818" y="849" type="line"/>
      <point x="914" y="783"/>
      <point x="972" y="663"/>
      <point x="972" y="511" type="curve" smooth="yes"/>
      <point x="972" y="274"/>
      <point x="832" y="116"/>
    </contour>
  </outline>
</glyph>
<glyph name="thorn" format="1">
  <advance width="618"/>
  <unicode hex="00FE"/>
  <outline>
    <contour>
      <point x="79" y="-214" type="line"/>
      <point x="162" y="-214" type="line"/>
      <point x="162" y="68" type="line"/>
      <point x="205" y="16"/>
      <point x="262" y="-12"/>
      <point x="334" y="-12" type="curve" smooth="yes"/>
      <point x="374" y="-12"/>
      <point x="407" y="-4"/>
      <point x="437" y="11" type="curve" smooth="yes"/>
      <point x="519" y="53"/>
      <point x="570" y="142"/>
      <point x="570" y="264" type="curve" smooth="yes"/>
      <point x="570" y="300"/>
      <point x="565" y="332"/>
      <point x="555" y="364" type="curve" smooth="yes"/>
      <point x="527" y="458"/>
      <point x="456" y="526"/>
      <point x="334" y="526" type="curve" smooth="yes"/>
      <point x="254" y="526"/>
      <point x="199" y="491"/>
      <point x="162" y="441" type="curve"/>
      <point x="162" y="728" type="line"/>
      <point x="79" y="728" type="line"/>
    </contour>
    <contour>
      <point x="322" y="54" type="curve" smooth="yes"/>
      <point x="296" y="54"/>
      <point x="273" y="59"/>
      <point x="253" y="69" type="curve" smooth="yes"/>
      <point x="195" y="97"/>
      <point x="162" y="161"/>
      <point x="162" y="247" type="curve" smooth="yes"/>
      <point x="162" y="366"/>
      <point x="205" y="458"/>
      <point x="325" y="458" type="curve" smooth="yes"/>
      <point x="437" y="458"/>
      <point x="482" y="372"/>
      <point x="482" y="260" type="curve" smooth="yes"/>
      <point x="482" y="148"/>
      <point x="435" y="54"/>
    </contour>
  </outline>
</glyph>
<glyph name="Itilde" format="1">
  <advance width="544"/>
  <unicode hex="0128"/>
  <outline>
    <contour>
      <point x="-50" y="1633" type="curve"/>
      <point x="55" y="1633" type="line"/>
      <point x="62" y="1690"/>
      <point x="92" y="1718"/>
      <point x="146" y="1718" type="curve" smooth="yes"/>
      <point x="241" y="1718"/>
      <point x="303" y="1650"/>
      <point x="399" y="1650" type="curve" smooth="yes"/>
      <point x="523" y="1650"/>
      <point x="581" y="1752"/>
      <point x="594" y="1865" type="curve"/>
      <point x="486" y="1865" type="line"/>
      <point x="479" y="1814"/>
      <point x="452" y="1775"/>
      <point x="399" y="1775" type="curve" smooth="yes"/>
      <point x="380" y="1775"/>
      <point x="360" y="1779"/>
      <point x="340" y="1786" type="curve" smooth="yes"/>
      <point x="282" y="1807"/>
      <point x="225" y="1843"/>
      <point x="149" y="1843" type="curve" smooth="yes"/>
      <point x="25" y="1843"/>
      <point x="-40" y="1749"/>
    </contour>
    <contour>
      <point x="186" y="0" type="line"/>
      <point x="358" y="0" type="line"/>
      <point x="358" y="1456" type="line"/>
      <point x="186" y="1456" type="line"/>
    </contour>
  </outline>
</glyph>
<glyph name="IJ" format="1">
  <advance width="1585"/>
  <unicode hex="0132"/>
  <outline>
    <contour>
      <point x="585" y="-114" type="line"/>
      <point x="940" y="-285"/>
      <point x="1299" y="-176"/>
      <point x="1299" y="336" type="curve" smooth="yes"/>
      <point x="1299" y="1314" type="line"/>
      <point x="1571" y="1314" type="line"/>
      <point x="1571" y="1456" type="line"/>
      <point x="708" y="1456" type="line"/>
      <point x="708" y="1314" type="line"/>
      <point x="1127" y="1314" type="line"/>
      <point x="1127" y="334" type="line" smooth="yes"/>
      <point x="1127" y="-35"/>
      <point x="934" y="-111"/>
      <point x="637" y="22" type="curve"/>
    </contour>
    <contour>
      <point x="186" y="0" type="line"/>
      <point x="358" y="0" type="line"/>
      <point x="358" y="1456" type="line"/>
      <point x="186" y="1456" type="line"/>
    </contour>
  </outline>
</glyph>
<glyph name="Jcircumflex" format="1">
  <advance width="1041"/>
  <unicode hex="0134"/>
  <outline>
    <contour>
      <point x="41" y="-114" type="line"/>
      <point x="396" y="-285"/>
      <point x="755" y="-176"/>
      <point x="755" y="336" type="curve" smooth="yes"/>
      <point x="755" y="1314" type="line"/>
      <point x="1027" y="1314" type="line"/>
      <point x="1027" y="1456" type="line"/>
      <point x="164" y="1456" type="line"/>
      <point x="164" y="1314" type="line"/>
      <point x="583" y="1314" type="line"/>
      <point x="583" y="334" type="line" smooth="yes"/>
      <point x="583" y="-35"/>
      <point x="390" y="-111"/>
      <point x="93" y="22" type="curve"/>
    </contour>
    <contour>
      <point x="303" y="1600" type="line"/>
      <point x="429" y="1600" type="line"/>
      <point x="607" y="1816" type="line"/>
      <point x="785" y="1600" type="line"/>
      <point x="917" y="1600" type="line"/>
      <point x="688" y="1924" type="line"/>
      <point x="531" y="1924" type="line"/>
    </contour>
  </outline>
</glyph>
<glyph name="jcircumflex" format="1">
  <advance width="503"/>
  <unicode hex="0135"/>
  <outline>
    <contour>
      <point x="21" y="-429" type="curve" smooth="yes"/>
      <point x="67" y="-429"/>
      <point x="106" y="-422"/>
      <point x="140" y="-407" type="curve" smooth="yes"/>
      <point x="296" y="-339"/>
      <point x="340" y="-150"/>
      <point x="340" y="73" type="curve" smooth="yes"/>
      <point x="340" y="1026" type="line"/>
      <point x="175" y="1026" type="line"/>
      <point x="175" y="31" type="line" smooth="yes"/>
      <point x="175" y="-146"/>
      <point x="138" y="-283"/>
      <point x="-18" y="-283" type="curve" smooth="yes"/>
      <point x="-48" y="-283"/>
      <point x="-72" y="-278"/>
      <point x="-102" y="-273" type="curve"/>
      <point x="-101" y="-416" type="line"/>
      <point x="-63" y="-425"/>
      <point x="-23" y="-429"/>
    </contour>
    <contour>
      <point x="-50" y="1173" type="line"/>
      <point x="76" y="1173" type="line"/>
      <point x="254" y="1389" type="line"/>
      <point x="432" y="1173" type="line"/>
      <point x="564" y="1173" type="line"/>
      <point x="335" y="1497" type="line"/>
      <point x="178" y="1497" type="line"/>
    </contour>
  </outline>
</glyph>
<glyph name="kgreenlandic" format="1">
  <advance width="540"/>
  <unicode hex="0138"/>
  <outline>
    <contour>
      <point x="89" y="0" type="line"/>
      <point x="172" y="0" type="line"/>
      <point x="172" y="236" type="line"/>
      <point x="426" y="0" type="line"/>
      <point x="536" y="0" type="line"/>
      <point x="440" y="87"/>
      <point x="348" y="169"/>
      <point x="252" y="256" type="curve"/>
      <point x="517" y="513" type="line"/>
      <point x="404" y="513" type="line"/>
      <point x="172" y="278" type="line"/>
      <point x="172" y="513" type="line"/>
      <point x="89" y="513" type="line"/>
    </contour>
  </outline>
</glyph>
<glyph name="lslash" format="1">
  <advance width="250"/>
  <unicode hex="0142"/>
  <outline>
    <contour>
      <point x="84" y="0" type="line"/>
      <point x="166" y="0" type="line"/>
      <point x="166" y="394" type="line"/>
      <point x="252" y="445" type="line"/>
      <point x="252" y="514" type="line"/>
      <point x="166" y="462" type="line"/>
      <point x="166" y="746" type="line"/>
      <point x="84" y="746" type="line"/>
      <point x="84" y="413" type="line"/>
      <point x="0" y="363" type="line"/>
      <point x="0" y="294" type="line"/>
      <point x="84" y="344" type="line"/>
    </contour>
  </outline>
</glyph>
<glyph name="OE" format="1">
  <advance width="1048"/>
  <unicode hex="0152"/>
  <outline>
    <contour>
      <point x="414" y="-12" type="curve" smooth="yes"/>
      <point x="484" y="-12"/>
      <point x="536" y="16"/>
      <point x="576" y="52" type="curve"/>
      <point x="576" y="0" type="line"/>
      <point x="992" y="0" type="line"/>
      <point x="992" y="74" type="line"/>
      <point x="662" y="74" type="line"/>
      <point x="662" y="336" type="line"/>
      <point x="958" y="336" type="line"/>
      <point x="958" y="410" type="line"/>
      <point x="662" y="410" type="line"/>
      <point x="662" y="654" type="line"/>
      <point x="977" y="654" type="line"/>
      <point x="977" y="728" type="line"/>
      <point x="576" y="728" type="line"/>
      <point x="576" y="690" type="line"/>
      <point x="535" y="719"/>
      <point x="484" y="742"/>
      <point x="418" y="742" type="curve" smooth="yes"/>
      <point x="200" y="742"/>
      <point x="57" y="604"/>
      <point x="57" y="364" type="curve" smooth="yes"/>
      <point x="57" y="143"/>
      <point x="175" y="-12"/>
    </contour>
    <contour>
      <point x="414" y="62" type="curve" smooth="yes"/>
      <point x="247" y="62"/>
      <point x="149" y="178"/>
      <point x="149" y="362" type="curve" smooth="yes"/>
      <point x="149" y="540"/>
      <point x="233" y="668"/>
      <point x="415" y="668" type="curve" smooth="yes"/>
      <point x="486" y="668"/>
      <point x="536" y="644"/>
      <point x="576" y="610" type="curve"/>
      <point x="576" y="132" type="line"/>
      <point x="538" y="92"/>
      <point x="487" y="62"/>
    </contour>
    <contour>
      <point x="525" y="0" type="move" smooth="yes"/>
    </contour>
  </outline>
</glyph>
<glyph name="oe" format="1">
  <advance width="984"/>
  <unicode hex="0153"/>
  <outline>
    <contour>
      <point x="305" y="-14" type="curve" smooth="yes"/>
      <point x="411" y="-14"/>
      <point x="481" y="28"/>
      <point x="511" y="104" type="curve"/>
      <point x="541" y="30"/>
      <point x="607" y="-14"/>
      <point x="705" y="-14" type="curve" smooth="yes"/>
      <point x="808" y="-14"/>
      <point x="878" y="31"/>
      <point x="918" y="103" type="curve"/>
      <point x="874" y="146" type="line"/>
      <point x="842" y="96"/>
      <point x="786" y="54"/>
      <point x="710" y="54" type="curve" smooth="yes"/>
      <point x="685" y="54"/>
      <point x="664" y="60"/>
      <point x="645" y="68" type="curve" smooth="yes"/>
      <point x="591" y="93"/>
      <point x="558" y="148"/>
      <point x="556" y="225" type="curve"/>
      <point x="556" y="235" type="line"/>
      <point x="934" y="236" type="line"/>
      <point x="934" y="262" type="line" smooth="yes"/>
      <point x="934" y="417"/>
      <point x="862" y="526"/>
      <point x="708" y="526" type="curve" smooth="yes"/>
      <point x="608" y="526"/>
      <point x="548" y="481"/>
      <point x="514" y="410" type="curve"/>
      <point x="476" y="482"/>
      <point x="415" y="526"/>
      <point x="310" y="526" type="curve" smooth="yes"/>
      <point x="268" y="526"/>
      <point x="231" y="519"/>
      <point x="198" y="505" type="curve" smooth="yes"/>
      <point x="108" y="466"/>
      <point x="46" y="380"/>
      <point x="46" y="254" type="curve" smooth="yes"/>
      <point x="46" y="217"/>
      <point x="52" y="182"/>
      <point x="64" y="150" type="curve" smooth="yes"/>
      <point x="98" y="55"/>
      <point x="177" y="-14"/>
    </contour>
    <contour>
      <point x="310" y="54" type="curve" smooth="yes"/>
      <point x="280" y="54"/>
      <point x="253" y="60"/>
      <point x="231" y="70" type="curve" smooth="yes"/>
      <point x="169" y="100"/>
      <point x="132" y="164"/>
      <point x="132" y="254" type="curve" smooth="yes"/>
      <point x="132" y="282"/>
      <point x="136" y="308"/>
      <point x="144" y="332" type="curve" smooth="yes"/>
      <point x="165" y="402"/>
      <point x="216" y="458"/>
      <point x="306" y="458" type="curve" smooth="yes"/>
      <point x="423" y="458"/>
      <point x="472" y="373"/>
      <point x="472" y="256" type="curve" smooth="yes"/>
      <point x="472" y="144"/>
      <point x="422" y="54"/>
    </contour>
    <contour>
      <point x="556" y="304" type="line"/>
      <point x="558" y="324"/>
      <point x="562" y="344"/>
      <point x="570" y="362" type="curve" smooth="yes"/>
      <point x="592" y="414"/>
      <point x="639" y="458"/>
      <point x="712" y="458" type="curve" smooth="yes"/>
      <point x="804" y="458"/>
      <point x="848" y="396"/>
      <point x="848" y="304" type="curve"/>
    </contour>
    <contour>
      <point x="492" y="0" type="move" smooth="yes"/>
    </contour>
  </outline>
</glyph>
<glyph name="Rcaron" format="1">
  <advance width="1320"/>
  <unicode hex="0158"/>
  <outline>
    <contour>
      <point x="174" y="0" type="line"/>
      <point x="346" y="0" type="line"/>
      <point x="346" y="652" type="line"/>
      <point x="616" y="652" type="line" smooth="yes"/>
      <point x="812" y="652"/>
      <point x="862" y="564"/>
      <point x="915" y="419" type="curve" smooth="yes"/>
      <point x="1068" y="0" type="line"/>
      <point x="1256" y="0" type="line"/>
      <point x="1093" y="410" type="line" smooth="yes"/>
      <point x="1039" y="546"/>
      <point x="994" y="670"/>
      <point x="858" y="715" type="curve"/>
      <point x="1024" y="758"/>
      <point x="1168" y="867"/>
      <point x="1168" y="1074" type="curve" smooth="yes"/>
      <point x="1168" y="1410"/>
      <point x="865" y="1456"/>
      <point x="530" y="1456" type="curve" smooth="yes"/>
      <point x="174" y="1456" type="line"/>
    </contour>
    <contour>
      <point x="581" y="1600" type="line"/>
      <point x="737" y="1600" type="line"/>
      <point x="975" y="1923" type="line"/>
      <point x="821" y="1923" type="line"/>
      <point x="653" y="1708" type="line"/>
      <point x="489" y="1923" type="line"/>
      <point x="342" y="1923" type="line"/>
    </contour>
    <contour>
      <point x="346" y="799" type="line"/>
      <point x="346" y="1308" type="line"/>
      <point x="623" y="1308" type="line" smooth="yes"/>
      <point x="826" y="1308"/>
      <point x="986" y="1261"/>
      <point x="986" y="1058" type="curve" smooth="yes"/>
      <point x="986" y="859"/>
      <point x="809" y="799"/>
      <point x="612" y="799" type="curve" smooth="yes"/>
    </contour>
  </outline>
</glyph>
<glyph name="uni020C" format="1">
  <advance width="1660"/>
  <unicode hex="020C"/>
  <outline>
    <contour>
      <point x="830" y="127" type="curve" smooth="yes"/>
      <point x="778" y="127"/>
      <point x="728" y="134"/>
      <point x="679" y="148" type="curve"/>
      <point x="759" y="148" type="line"/>
      <point x="539" y="461" type="line"/>
      <point x="363" y="461" type="line"/>
      <point x="621" y="168" type="line"/>
      <point x="436" y="246"/>
      <point x="296" y="434"/>
      <point x="296" y="729" type="curve" smooth="yes"/>
      <point x="296" y="1128"/>
      <point x="552" y="1331"/>
      <point x="830" y="1331" type="curve" smooth="yes"/>
      <point x="1108" y="1331"/>
      <point x="1364" y="1128"/>
      <point x="1364" y="729" type="curve" smooth="yes"/>
      <point x="1364" y="423"/>
      <point x="1214" y="232"/>
      <point x="1018" y="160" type="curve"/>
      <point x="809" y="461" type="line"/>
      <point x="633" y="461" type="line"/>
      <point x="908" y="148" type="line"/>
      <point x="981" y="148" type="line"/>
      <point x="932" y="134"/>
      <point x="882" y="127"/>
    </contour>
    <contour>
      <point x="830" y="-25" type="curve" smooth="yes"/>
      <point x="1304" y="-25"/>
      <point x="1548" y="336"/>
      <point x="1548" y="728" type="curve" smooth="yes"/>
      <point x="1548" y="1122"/>
      <point x="1304" y="1483"/>
      <point x="830" y="1483" type="curve" smooth="yes"/>
      <point x="356" y="1483"/>
      <point x="112" y="1122"/>
      <point x="112" y="728" type="curve" smooth="yes"/>
      <point x="112" y="336"/>
      <point x="356" y="-25"/>
    </contour>
  </outline>
</glyph>
<glyph name="uni020E" format="1">
  <advance width="1660"/>
  <unicode hex="020E"/>
  <outline>
    <contour>
      <point x="830" y="127" type="curve" smooth="yes"/>
      <point x="739" y="127"/>
      <point x="650" y="149"/>
      <point x="572" y="192" type="curve"/>
      <point x="628" y="192" type="line"/>
      <point x="643" y="280"/>
      <point x="716" y="321"/>
      <point x="818" y="321" type="curve" smooth="yes"/>
      <point x="920" y="321"/>
      <point x="999" y="276"/>
      <point x="1019" y="192" type="curve"/>
      <point x="1088" y="192" type="line"/>
      <point x="1010" y="149"/>
      <point x="921" y="127"/>
    </contour>
    <contour>
      <point x="1104" y="201" type="curve"/>
      <point x="1088" y="349"/>
      <point x="988" y="428"/>
      <point x="825" y="428" type="curve" smooth="yes"/>
      <point x="660" y="428"/>
      <point x="562" y="358"/>
      <point x="543" y="210" type="curve"/>
      <point x="398" y="304"/>
      <point x="296" y="477"/>
      <point x="296" y="729" type="curve" smooth="yes"/>
      <point x="296" y="1128"/>
      <point x="552" y="1331"/>
      <point x="830" y="1331" type="curve" smooth="yes"/>
      <point x="1108" y="1331"/>
      <point x="1364" y="1128"/>
      <point x="1364" y="729" type="curve" smooth="yes"/>
      <point x="1364" y="470"/>
      <point x="1256" y="293"/>
    </contour>
    <contour>
      <point x="830" y="-25" type="curve" smooth="yes"/>
      <point x="1304" y="-25"/>
      <point x="1548" y="336"/>
      <point x="1548" y="728" type="curve" smooth="yes"/>
      <point x="1548" y="1122"/>
      <point x="1304" y="1483"/>
      <point x="830" y="1483" type="curve" smooth="yes"/>
      <point x="356" y="1483"/>
      <point x="112" y="1122"/>
      <point x="112" y="728" type="curve" smooth="yes"/>
      <point x="112" y="336"/>
      <point x="356" y="-25"/>
    </contour>
  </outline>
</glyph>
<glyph name="uni0217" format="1">
  <advance width="1199"/>
  <unicode hex="0217"/>
  <outline>
    <contour>
      <point x="522" y="-22" type="curve" smooth="yes"/>
      <point x="680" y="-22"/>
      <point x="798" y="40"/>
      <point x="875" y="164" type="curve"/>
      <point x="887" y="43"/>
      <point x="982" y="-33"/>
      <point x="1139" y="-3" type="curve"/>
      <point x="1155" y="135" type="line"/>
      <point x="1063" y="115"/>
      <point x="1014" y="156"/>
      <point x="1014" y="302" type="curve" smooth="yes"/>
      <point x="1014" y="1026" type="line"/>
      <point x="850" y="1026" type="line"/>
      <point x="850" y="427" type="line" smooth="yes"/>
      <point x="850" y="231"/>
      <point x="712" y="116"/>
      <point x="547" y="116" type="curve" smooth="yes"/>
      <point x="426" y="116"/>
      <point x="305" y="169"/>
      <point x="310" y="365" type="curve" smooth="yes"/>
      <point x="316" y="595" type="line" smooth="yes"/>
      <point x="325" y="941"/>
      <point x="257" y="1026"/>
      <point x="257" y="1026" type="curve"/>
      <point x="92" y="1000" type="line"/>
      <point x="92" y="1000"/>
      <point x="160" y="901"/>
      <point x="151" y="582" type="curve" smooth="yes"/>
      <point x="145" y="365" type="line" smooth="yes"/>
      <point x="137" y="80"/>
      <point x="328" y="-22"/>
    </contour>
    <contour>
      <point x="314" y="1218" type="curve"/>
      <point x="401" y="1218" type="line"/>
      <point x="416" y="1306"/>
      <point x="489" y="1347"/>
      <point x="591" y="1347" type="curve" smooth="yes"/>
      <point x="693" y="1347"/>
      <point x="772" y="1302"/>
      <point x="792" y="1218" type="curve"/>
      <point x="878" y="1218" type="line"/>
      <point x="865" y="1372"/>
      <point x="764" y="1454"/>
      <point x="598" y="1454" type="curve" smooth="yes"/>
      <point x="427" y="1454"/>
      <point x="327" y="1378"/>
    </contour>
  </outline>
</glyph>
<glyph name="uni0237" format="1">
  <advance width="250"/>
  <unicode hex="0237"/>
  <outline>
    <contour>
      <point x="10" y="-214" type="curve" smooth="yes"/>
      <point x="33" y="-214"/>
      <point x="53" y="-212"/>
      <point x="70" y="-204" type="curve" smooth="yes"/>
      <point x="148" y="-170"/>
      <point x="170" y="-76"/>
      <point x="170" y="36" type="curve" smooth="yes"/>
      <point x="170" y="513" type="line"/>
      <point x="88" y="513" type="line"/>
      <point x="88" y="16" type="line" smooth="yes"/>
      <point x="88" y="-72"/>
      <point x="69" y="-142"/>
      <point x="-9" y="-142" type="curve" smooth="yes"/>
      <point x="-24" y="-142"/>
      <point x="-36" y="-138"/>
      <point x="-51" y="-136" type="curve"/>
      <point x="-50" y="-208" type="line"/>
      <point x="-31" y="-212"/>
      <point x="-12" y="-214"/>
    </contour>
    <contour>
      <point x="126" y="513" type="move" smooth="yes"/>
    </contour>
  </outline>
</glyph>
<glyph name="circumflex" format="1">
  <advance width="348"/>
  <unicode hex="02C6"/>
  <outline>
    <contour>
      <point x="18" y="585" type="line"/>
      <point x="80" y="585" type="line"/>
      <point x="170" y="693" type="line"/>
      <point x="258" y="585" type="line"/>
      <point x="324" y="585" type="line"/>
      <point x="210" y="747" type="line"/>
      <point x="132" y="747" type="line"/>
    </contour>
    <contour>
      <point x="171" y="513" type="move" smooth="yes"/>
    </contour>
  </outline>
</glyph>
<glyph name="caron" format="1">
  <advance width="348"/>
  <unicode hex="02C7"/>
  <outline>
    <contour>
      <point x="134" y="585" type="line"/>
      <point x="212" y="585" type="line"/>
      <point x="331" y="746" type="line"/>
      <point x="254" y="746" type="line"/>
      <point x="170" y="639" type="line"/>
      <point x="88" y="746" type="line"/>
      <point x="14" y="746" type="line"/>
    </contour>
    <contour>
      <point x="173" y="513" type="move" smooth="yes"/>
    </contour>
  </outline>
</glyph>
<glyph name="breve" format="1">
  <advance width="313"/>
  <unicode hex="02D8"/>
  <outline>
    <contour>
      <point x="158" y="609" type="curve" smooth="yes"/>
      <point x="241" y="609"/>
      <point x="292" y="650"/>
      <point x="298" y="727" type="curve"/>
      <point x="255" y="727" type="line"/>
      <point x="245" y="685"/>
      <point x="205" y="662"/>
      <point x="154" y="662" type="curve" smooth="yes"/>
      <point x="103" y="662"/>
      <point x="68" y="683"/>
      <point x="60" y="727" type="curve"/>
      <point x="16" y="727" type="line"/>
      <point x="22" y="647"/>
      <point x="72" y="609"/>
    </contour>
    <contour>
      <point x="157" y="513" type="move" smooth="yes"/>
    </contour>
  </outline>
</glyph>
<glyph name="dotaccent" format="1">
  <advance width="261"/>
  <unicode hex="02D9"/>
  <outline>
    <contour>
      <point x="92" y="623" type="line"/>
      <point x="172" y="623" type="line"/>
      <point x="172" y="704" type="line"/>
      <point x="92" y="704" type="line"/>
    </contour>
    <contour>
      <point x="132" y="513" type="move" smooth="yes"/>
    </contour>
  </outline>
</glyph>
<glyph name="ogonek" format="1">
  <advance width="253"/>
  <unicode hex="02DB"/>
  <outline>
    <contour>
      <point x="133" y="-195" type="curve" smooth="yes"/>
      <point x="165" y="-195"/>
      <point x="199" y="-190"/>
      <point x="222" y="-180" type="curve"/>
      <point x="222" y="-125" type="line"/>
      <point x="199" y="-134"/>
      <point x="176" y="-140"/>
      <point x="144" y="-140" type="curve" smooth="yes"/>
      <point x="118" y="-140"/>
      <point x="94" y="-126"/>
      <point x="94" y="-100" type="curve" smooth="yes"/>
      <point x="94" y="-92"/>
      <point x="97" y="-84"/>
      <point x="102" y="-76" type="curve" smooth="yes"/>
      <point x="123" y="-44"/>
      <point x="162" y="-21"/>
      <point x="196" y="0" type="curve"/>
      <point x="132" y="6" type="line"/>
      <point x="105" y="-7"/>
      <point x="78" y="-24"/>
      <point x="58" y="-44" type="curve" smooth="yes"/>
      <point x="42" y="-60"/>
      <point x="24" y="-83"/>
      <point x="24" y="-112" type="curve" smooth="yes"/>
      <point x="24" y="-126"/>
      <point x="26" y="-138"/>
      <point x="32" y="-148" type="curve" smooth="yes"/>
      <point x="49" y="-178"/>
      <point x="86" y="-195"/>
    </contour>
    <contour>
      <point x="166" y="5" type="move" smooth="yes"/>
    </contour>
  </outline>
</glyph>
<glyph name="dblgravecmb" format="1">
  <advance width="0"/>
  <unicode hex="030F"/>
  <outline>
    <contour>
      <point x="-531" y="1174" type="line"/>
      <point x="-411" y="1174" type="line"/>
      <point x="-631" y="1487" type="line"/>
      <point x="-807" y="1487" type="line"/>
    </contour>
    <contour>
      <point x="-262" y="1174" type="line"/>
      <point x="-144" y="1174" type="line"/>
      <point x="-361" y="1487" type="line"/>
      <point x="-537" y="1487" type="line"/>
    </contour>
  </outline>
</glyph>
<glyph name="uni03BC" format="1">
  <advance width="1217"/>
  <unicode hex="03BC"/>
  <outline>
    <contour>
      <point x="157" y="-202" type="line"/>
      <point x="322" y="-202" type="line"/>
      <point x="322" y="31" type="line"/>
      <point x="379" y="-3"/>
      <point x="449" y="-23"/>
      <point x="540" y="-23" type="curve" smooth="yes"/>
      <point x="688" y="-23"/>
      <point x="801" y="30"/>
      <point x="878" y="135" type="curve"/>
      <point x="881" y="0" type="line"/>
      <point x="1051" y="0" type="line"/>
      <point x="1044" y="84"/>
      <point x="1043" y="156"/>
      <point x="1043" y="246" type="curve" smooth="yes"/>
      <point x="1043" y="1026" type="line"/>
      <point x="878" y="1026" type="line"/>
      <point x="878" y="436" type="line" smooth="yes"/>
      <point x="878" y="392"/>
      <point x="871" y="350"/>
      <point x="858" y="310" type="curve" smooth="yes"/>
      <point x="820" y="196"/>
      <point x="729" y="109"/>
      <point x="578" y="109" type="curve" smooth="yes"/>
      <point x="396" y="109"/>
      <point x="322" y="214"/>
      <point x="322" y="399" type="curve" smooth="yes"/>
      <point x="322" y="1026" type="line"/>
      <point x="157" y="1026" type="line"/>
    </contour>
  </outline>
</glyph>
<glyph name="pi" format="1">
  <advance width="643"/>
  <unicode hex="03C0"/>
  <outline>
    <contour>
      <point x="530" y="-4" type="curve" smooth="yes"/>
      <point x="554" y="-4"/>
      <point x="577" y="-1"/>
      <point x="599" y="3" type="curve"/>
      <point x="594" y="17"/>
      <point x="592" y="32"/>
      <point x="592" y="50" type="curve" smooth="yes"/>
      <point x="592" y="55"/>
      <point x="593" y="60"/>
      <point x="593" y="65" type="curve" smooth="yes"/>
      <point x="594" y="80" type="line"/>
      <point x="580" y="76"/>
      <point x="566" y="74"/>
      <point x="554" y="74" type="curve" smooth="yes"/>
      <point x="512" y="74"/>
      <point x="505" y="103"/>
      <point x="505" y="144" type="curve" smooth="yes"/>
      <point x="505" y="454" type="line"/>
      <point x="607" y="454" type="line"/>
      <point x="607" y="520" type="line"/>
      <point x="184" y="520" type="line" smooth="yes"/>
      <point x="113" y="520"/>
      <point x="48" y="518"/>
      <point x="8" y="488" type="curve"/>
      <point x="17" y="423" type="line"/>
      <point x="55" y="443"/>
      <point x="98" y="452"/>
      <point x="156" y="454" type="curve"/>
      <point x="154" y="370"/>
      <point x="148" y="284"/>
      <point x="138" y="206" type="curve" smooth="yes"/>
      <point x="128" y="132"/>
      <point x="116" y="52"/>
      <point x="86" y="0" type="curve"/>
      <point x="170" y="0" type="line"/>
      <point x="176" y="10"/>
      <point x="182" y="26"/>
      <point x="187" y="44" type="curve" smooth="yes"/>
      <point x="219" y="168"/>
      <point x="229" y="310"/>
      <point x="240" y="454" type="curve"/>
      <point x="426" y="454" type="line"/>
      <point x="426" y="140" type="line" smooth="yes"/>
      <point x="426" y="52"/>
      <point x="444" y="-4"/>
    </contour>
  </outline>
</glyph>
<glyph name="endash" format="1">
  <advance width="541"/>
  <unicode hex="2013"/>
  <outline>
    <contour>
      <point x="-3" y="244" type="line"/>
      <point x="542" y="244" type="line"/>
      <point x="542" y="313" type="line"/>
      <point x="-3" y="313" type="line"/>
    </contour>
  </outline>
</glyph>
<glyph name="emdash" format="1">
  <advance width="1084"/>
  <unicode hex="2014"/>
  <outline>
    <contour>
      <point x="-2" y="244" type="line"/>
      <point x="1080" y="244" type="line"/>
      <point x="1080" y="313" type="line"/>
      <point x="-2" y="313" type="line"/>
    </contour>
  </outline>
</glyph>
<glyph name="quoteleft" format="1">
  <advance width="275"/>
  <unicode hex="2018"/>
  <outline>
    <contour>
      <point x="65" y="512" type="line"/>
      <point x="156" y="512" type="line"/>
      <point x="208" y="732" type="line"/>
      <point x="142" y="732" type="line"/>
    </contour>
  </outline>
</glyph>
<glyph name="quotesinglbase" format="1">
  <advance width="275"/>
  <unicode hex="201A"/>
  <outline>
    <contour>
      <point x="62" y="-119" type="line"/>
      <point x="129" y="-119" type="line"/>
      <point x="206" y="100" type="line"/>
      <point x="116" y="100" type="line"/>
    </contour>
  </outline>
</glyph>
<glyph name="quotedblbase" format="1">
  <advance width="511"/>
  <unicode hex="201E"/>
  <outline>
    <contour>
      <point x="89" y="-119" type="line"/>
      <point x="156" y="-119" type="line"/>
      <point x="232" y="100" type="line"/>
      <point x="142" y="100" type="line"/>
    </contour>
    <contour>
      <point x="268" y="-119" type="line"/>
      <point x="335" y="-119" type="line"/>
      <point x="412" y="100" type="line"/>
      <point x="320" y="100" type="line"/>
    </contour>
  </outline>
</glyph>
<glyph name="dagger" format="1">
  <advance width="510"/>
  <unicode hex="2020"/>
  <outline>
    <contour>
      <point x="216" y="56" type="line"/>
      <point x="280" y="56" type="line"/>
      <point x="280" y="467" type="line"/>
      <point x="460" y="467" type="line"/>
      <point x="460" y="533" type="line"/>
      <point x="288" y="533" type="line"/>
      <point x="288" y="726" type="line"/>
      <point x="216" y="726" type="line"/>
      <point x="216" y="533" type="line"/>
      <point x="54" y="533" type="line"/>
      <point x="54" y="467" type="line"/>
      <point x="216" y="467" type="line"/>
    </contour>
  </outline>
</glyph>
<glyph name="bullet" format="1">
  <advance width="493"/>
  <unicode hex="2022"/>
  <outline>
    <contour>
      <point x="246" y="192" type="curve" smooth="yes"/>
      <point x="296" y="192"/>
      <point x="338" y="213"/>
      <point x="366" y="239" type="curve" smooth="yes"/>
      <point x="393" y="264"/>
      <point x="416" y="302"/>
      <point x="416" y="350" type="curve" smooth="yes"/>
      <point x="416" y="371"/>
      <point x="412" y="391"/>
      <point x="403" y="410" type="curve" smooth="yes"/>
      <point x="379" y="462"/>
      <point x="325" y="505"/>
      <point x="249" y="505" type="curve" smooth="yes"/>
      <point x="227" y="505"/>
      <point x="204" y="500"/>
      <point x="184" y="492" type="curve" smooth="yes"/>
      <point x="130" y="470"/>
      <point x="78" y="421"/>
      <point x="78" y="347" type="curve" smooth="yes"/>
      <point x="78" y="326"/>
      <point x="84" y="306"/>
      <point x="92" y="288" type="curve" smooth="yes"/>
      <point x="116" y="235"/>
      <point x="170" y="192"/>
    </contour>
  </outline>
</glyph>
<glyph name="perthousand" format="1">
  <advance width="1192"/>
  <unicode hex="2030"/>
  <outline>
    <contour>
      <point x="205" y="370" type="curve" smooth="yes"/>
      <point x="231" y="370"/>
      <point x="255" y="374"/>
      <point x="276" y="383" type="curve" smooth="yes"/>
      <point x="334" y="407"/>
      <point x="374" y="464"/>
      <point x="374" y="546" type="curve" smooth="yes"/>
      <point x="374" y="656"/>
      <point x="316" y="724"/>
      <point x="206" y="724" type="curve" smooth="yes"/>
      <point x="179" y="724"/>
      <point x="155" y="719"/>
      <point x="134" y="710" type="curve" smooth="yes"/>
      <point x="75" y="686"/>
      <point x="36" y="630"/>
      <point x="36" y="548" type="curve" smooth="yes"/>
      <point x="36" y="440"/>
      <point x="96" y="370"/>
    </contour>
    <contour>
      <point x="586" y="-14" type="curve" smooth="yes"/>
      <point x="613" y="-14"/>
      <point x="637" y="-9"/>
      <point x="658" y="0" type="curve" smooth="yes"/>
      <point x="717" y="25"/>
      <point x="756" y="80"/>
      <point x="756" y="162" type="curve" smooth="yes"/>
      <point x="756" y="272"/>
      <point x="698" y="340"/>
      <point x="588" y="340" type="curve" smooth="yes"/>
      <point x="560" y="340"/>
      <point x="536" y="336"/>
      <point x="515" y="327" type="curve" smooth="yes"/>
      <point x="455" y="302"/>
      <point x="418" y="247"/>
      <point x="418" y="164" type="curve" smooth="yes"/>
      <point x="418" y="56"/>
      <point x="477" y="-14"/>
    </contour>
    <contour>
      <point x="980" y="-14" type="curve" smooth="yes"/>
      <point x="1007" y="-14"/>
      <point x="1031" y="-9"/>
      <point x="1052" y="0" type="curve" smooth="yes"/>
      <point x="1110" y="24"/>
      <point x="1150" y="80"/>
      <point x="1150" y="162" type="curve" smooth="yes"/>
      <point x="1150" y="272"/>
      <point x="1092" y="340"/>
      <point x="982" y="340" type="curve" smooth="yes"/>
      <point x="954" y="340"/>
      <point x="930" y="336"/>
      <point x="909" y="327" type="curve" smooth="yes"/>
      <point x="849" y="302"/>
      <point x="812" y="247"/>
      <point x="812" y="164" type="curve" smooth="yes"/>
      <point x="812" y="56"/>
      <point x="872" y="-14"/>
    </contour>
    <contour>
      <point x="207" y="426" type="curve" smooth="yes"/>
      <point x="139" y="426"/>
      <point x="110" y="480"/>
      <point x="110" y="548" type="curve" smooth="yes"/>
      <point x="110" y="614"/>
      <point x="140" y="668"/>
      <point x="206" y="668" type="curve" smooth="yes"/>
      <point x="273" y="668"/>
      <point x="302" y="614"/>
      <point x="302" y="546" type="curve" smooth="yes"/>
      <point x="302" y="481"/>
      <point x="273" y="426"/>
    </contour>
    <contour>
      <point x="122" y="-10" type="line"/>
      <point x="199" y="-10" type="line"/>
      <point x="666" y="718" type="line"/>
      <point x="592" y="718" type="line"/>
    </contour>
    <contour>
      <point x="588" y="43" type="curve" smooth="yes"/>
      <point x="520" y="43"/>
      <point x="490" y="96"/>
      <point x="490" y="164" type="curve" smooth="yes"/>
      <point x="490" y="230"/>
      <point x="521" y="284"/>
      <point x="587" y="284" type="curve" smooth="yes"/>
      <point x="655" y="284"/>
      <point x="684" y="232"/>
      <point x="684" y="164" type="curve" smooth="yes"/>
      <point x="684" y="98"/>
      <point x="654" y="43"/>
    </contour>
    <contour>
      <point x="982" y="43" type="curve" smooth="yes"/>
      <point x="914" y="43"/>
      <point x="884" y="96"/>
      <point x="884" y="164" type="curve" smooth="yes"/>
      <point x="884" y="230"/>
      <point x="915" y="284"/>
      <point x="981" y="284" type="curve" smooth="yes"/>
      <point x="1048" y="284"/>
      <point x="1078" y="231"/>
      <point x="1078" y="164" type="curve" smooth="yes"/>
      <point x="1078" y="98"/>
      <point x="1048" y="43"/>
    </contour>
  </outline>
</glyph>
<glyph name="guilsinglright" format="1">
  <advance width="320"/>
  <unicode hex="203A"/>
  <outline>
    <contour>
      <point x="52" y="86" type="line"/>
      <point x="130" y="86" type="line"/>
      <point x="268" y="271" type="line"/>
      <point x="133" y="457" type="line"/>
      <point x="56" y="457" type="line"/>
      <point x="182" y="271" type="line"/>
    </contour>
  </outline>
</glyph>
<glyph name="uni2074" format="1">
  <advance width="447"/>
  <unicode hex="2074"/>
  <outline>
    <contour>
      <point x="178" y="308" type="line"/>
      <point x="238" y="308" type="line"/>
      <point x="238" y="402" type="line"/>
      <point x="298" y="402" type="line"/>
      <point x="294" y="455" type="line"/>
      <point x="239" y="455" type="line"/>
      <point x="239" y="706" type="line"/>
      <point x="172" y="706" type="line"/>
      <point x="-11" y="447" type="line"/>
      <point x="-11" y="402" type="line"/>
      <point x="178" y="402" type="line"/>
    </contour>
    <contour>
      <point x="58" y="455" type="line"/>
      <point x="178" y="622" type="line"/>
      <point x="178" y="455" type="line"/>
    </contour>
  </outline>
</glyph>
<glyph name="product" format="1">
  <advance width="783"/>
  <unicode hex="220F"/>
  <outline>
    <contour>
      <point x="126" y="-164" type="line"/>
      <point x="213" y="-164" type="line"/>
      <point x="213" y="639" type="line"/>
      <point x="574" y="639" type="line"/>
      <point x="574" y="-164" type="line"/>
      <point x="664" y="-164" type="line"/>
      <point x="664" y="639" type="line"/>
      <point x="720" y="639" type="line"/>
      <point x="728" y="712" type="line"/>
      <point x="55" y="712" type="line"/>
      <point x="63" y="639" type="line"/>
      <point x="126" y="639" type="line"/>
    </contour>
  </outline>
</glyph>
<glyph name="summation" format="1">
  <advance width="631"/>
  <unicode hex="2211"/>
  <outline>
    <contour>
      <point x="28" y="-164" type="line"/>
      <point x="610" y="-164" type="line"/>
      <point x="610" y="-90" type="line"/>
      <point x="147" y="-90" type="line"/>
      <point x="449" y="280" type="line"/>
      <point x="162" y="640" type="line"/>
      <point x="588" y="640" type="line"/>
      <point x="588" y="712" type="line"/>
      <point x="40" y="712" type="line"/>
      <point x="40" y="664" type="line"/>
      <point x="348" y="276" type="line"/>
      <point x="28" y="-120" type="line"/>
    </contour>
  </outline>
</glyph>
<glyph name="minus" format="1">
  <advance width="728"/>
  <unicode hex="2212"/>
  <outline>
    <contour>
      <point x="99" y="248" type="line"/>
      <point x="624" y="248" type="line"/>
      <point x="624" y="316" type="line"/>
      <point x="99" y="316" type="line"/>
    </contour>
  </outline>
</glyph>
<glyph name="infinity" format="1">
  <advance width="1724"/>
  <unicode hex="221E"/>
  <outline>
    <contour>
      <point x="460" y="236" type="curve" smooth="yes"/>
      <point x="500" y="236"/>
      <point x="538" y="242"/>
      <point x="574" y="254" type="curve" smooth="yes"/>
      <point x="698" y="297"/>
      <point x="785" y="391"/>
      <point x="860" y="488" type="curve"/>
      <point x="926" y="404"/>
      <point x="991" y="341"/>
      <point x="1054" y="299" type="curve" smooth="yes"/>
      <point x="1117" y="257"/>
      <point x="1186" y="236"/>
      <point x="1260" y="236" type="curve" smooth="yes"/>
      <point x="1308" y="236"/>
      <point x="1354" y="245"/>
      <point x="1398" y="262" type="curve" smooth="yes"/>
      <point x="1522" y="311"/>
      <point x="1621" y="425"/>
      <point x="1621" y="595" type="curve" smooth="yes"/>
      <point x="1621" y="646"/>
      <point x="1613" y="692"/>
      <point x="1596" y="735" type="curve" smooth="yes"/>
      <point x="1547" y="859"/>
      <point x="1434" y="944"/>
      <point x="1262" y="944" type="curve" smooth="yes"/>
      <point x="1219" y="944"/>
      <point x="1180" y="938"/>
      <point x="1144" y="926" type="curve" smooth="yes"/>
      <point x="1019" y="884"/>
      <point x="936" y="789"/>
      <point x="862" y="692" type="curve"/>
      <point x="833" y="730"/>
      <point x="803" y="765"/>
      <point x="772" y="796" type="curve" smooth="yes"/>
      <point x="696" y="873"/>
      <point x="600" y="944"/>
      <point x="455" y="944" type="curve" smooth="yes"/>
      <point x="350" y="944"/>
      <point x="262" y="900"/>
      <point x="204" y="847" type="curve" smooth="yes"/>
      <point x="146" y="795"/>
      <point x="96" y="715"/>
      <point x="96" y="612" type="curve" smooth="yes"/>
      <point x="96" y="561"/>
      <point x="104" y="512"/>
      <point x="122" y="467" type="curve" smooth="yes"/>
      <point x="172" y="339"/>
      <point x="285" y="236"/>
    </contour>
    <contour>
      <point x="463" y="355" type="curve" smooth="yes"/>
      <point x="427" y="355"/>
      <point x="395" y="362"/>
      <point x="366" y="375" type="curve" smooth="yes"/>
      <point x="290" y="410"/>
      <point x="226" y="485"/>
      <point x="226" y="592" type="curve" smooth="yes"/>
      <point x="226" y="624"/>
      <point x="232" y="654"/>
      <point x="242" y="683" type="curve" smooth="yes"/>
      <point x="272" y="766"/>
      <point x="341" y="829"/>
      <point x="453" y="829" type="curve" smooth="yes"/>
      <point x="488" y="829"/>
      <point x="521" y="822"/>
      <point x="552" y="810" type="curve" smooth="yes"/>
      <point x="658" y="768"/>
      <point x="729" y="679"/>
      <point x="791" y="589" type="curve"/>
      <point x="747" y="529"/>
      <point x="697" y="468"/>
      <point x="640" y="424" type="curve" smooth="yes"/>
      <point x="594" y="388"/>
      <point x="538" y="355"/>
    </contour>
    <contour>
      <point x="1263" y="355" type="curve" smooth="yes"/>
      <point x="1190" y="355"/>
      <point x="1141" y="380"/>
      <point x="1095" y="415" type="curve" smooth="yes"/>
      <point x="1031" y="463"/>
      <point x="982" y="523"/>
      <point x="929" y="592" type="curve"/>
      <point x="970" y="652"/>
      <point x="1019" y="712"/>
      <point x="1075" y="756" type="curve" smooth="yes"/>
      <point x="1122" y="793"/>
      <point x="1182" y="829"/>
      <point x="1258" y="829" type="curve" smooth="yes"/>
      <point x="1291" y="829"/>
      <point x="1320" y="823"/>
      <point x="1348" y="812" type="curve" smooth="yes"/>
      <point x="1420" y="782"/>
      <point x="1482" y="717"/>
      <point x="1482" y="618" type="curve" smooth="yes"/>
      <point x="1482" y="466"/>
      <point x="1414" y="355"/>
    </contour>
  </outline>
</glyph>
<glyph name="integral" format="1">
  <advance width="702"/>
  <unicode hex="222B"/>
  <outline>
    <contour>
      <point x="260" y="-399" type="curve" smooth="yes"/>
      <point x="483" y="-399"/>
      <point x="557" y="-245"/>
      <point x="557" y="-23" type="curve" smooth="yes"/>
      <point x="557" y="1279" type="line" smooth="yes"/>
      <point x="557" y="1415"/>
      <point x="584" y="1496"/>
      <point x="720" y="1496" type="curve" smooth="yes"/>
      <point x="757" y="1496"/>
      <point x="804" y="1491"/>
      <point x="830" y="1481" type="curve"/>
      <point x="828" y="1610" type="line"/>
      <point x="784" y="1620"/>
      <point x="747" y="1631"/>
      <point x="692" y="1631" type="curve" smooth="yes"/>
      <point x="469" y="1631"/>
      <point x="393" y="1477"/>
      <point x="393" y="1255" type="curve" smooth="yes"/>
      <point x="393" y="-47" type="line" smooth="yes"/>
      <point x="393" y="-183"/>
      <point x="368" y="-264"/>
      <point x="232" y="-264" type="curve" smooth="yes"/>
      <point x="195" y="-264"/>
      <point x="148" y="-259"/>
      <point x="122" y="-249" type="curve"/>
      <point x="124" y="-378" type="line"/>
      <point x="172" y="-391"/>
      <point x="201" y="-399"/>
    </contour>
  </outline>
</glyph>
<glyph name="approxequal" format="1">
  <advance width="1351"/>
  <unicode hex="2248"/>
  <outline>
    <contour>
      <point x="268" y="261" type="line"/>
      <point x="294" y="349"/>
      <point x="342" y="426"/>
      <point x="449" y="426" type="curve" smooth="yes"/>
      <point x="477" y="426"/>
      <point x="506" y="420"/>
      <point x="536" y="407" type="curve" smooth="yes"/>
      <point x="588" y="385"/>
      <point x="657" y="343"/>
      <point x="707" y="317" type="curve" smooth="yes"/>
      <point x="762" y="289"/>
      <point x="819" y="262"/>
      <point x="898" y="262" type="curve" smooth="yes"/>
      <point x="1072" y="262"/>
      <point x="1154" y="375"/>
      <point x="1187" y="518" type="curve"/>
      <point x="1077" y="546" type="line"/>
      <point x="1046" y="463"/>
      <point x="1004" y="380"/>
      <point x="904" y="380" type="curve" smooth="yes"/>
      <point x="875" y="380"/>
      <point x="844" y="389"/>
      <point x="810" y="406" type="curve" smooth="yes"/>
      <point x="776" y="423"/>
      <point x="740" y="442"/>
      <point x="702" y="463" type="curve" smooth="yes"/>
      <point x="635" y="500"/>
      <point x="550" y="546"/>
      <point x="452" y="546" type="curve" smooth="yes"/>
      <point x="283" y="546"/>
      <point x="189" y="433"/>
      <point x="154" y="289" type="curve"/>
    </contour>
    <contour>
      <point x="267" y="634" type="line"/>
      <point x="293" y="721"/>
      <point x="340" y="799"/>
      <point x="446" y="799" type="curve" smooth="yes"/>
      <point x="474" y="799"/>
      <point x="503" y="793"/>
      <point x="532" y="780" type="curve" smooth="yes"/>
      <point x="584" y="757"/>
      <point x="653" y="715"/>
      <point x="704" y="689" type="curve" smooth="yes"/>
      <point x="761" y="660"/>
      <point x="816" y="634"/>
      <point x="896" y="634" type="curve" smooth="yes"/>
      <point x="1069" y="634"/>
      <point x="1155" y="745"/>
      <point x="1185" y="890" type="curve"/>
      <point x="1075" y="918" type="line"/>
      <point x="1045" y="832"/>
      <point x="1003" y="752"/>
      <point x="902" y="752" type="curve" smooth="yes"/>
      <point x="875" y="752"/>
      <point x="846" y="759"/>
      <point x="814" y="772" type="curve" smooth="yes"/>
      <point x="706" y="816"/>
      <point x="597" y="917"/>
      <point x="450" y="917" type="curve" smooth="yes"/>
      <point x="279" y="917"/>
      <point x="185" y="808"/>
      <point x="152" y="661" type="curve"/>
    </contour>
  </outline>
</glyph>
<glyph name="lessequal" format="1">
  <advance width="674"/>
  <unicode hex="2264"/>
  <outline>
    <contour>
      <point x="573" y="108" type="line"/>
      <point x="573" y="178" type="line"/>
      <point x="186" y="355" type="line"/>
      <point x="573" y="540" type="line"/>
      <point x="573" y="610" type="line"/>
      <point x="98" y="374" type="line"/>
      <point x="98" y="333" type="line"/>
    </contour>
    <contour>
      <point x="80" y="4" type="line"/>
      <point x="588" y="4" type="line"/>
      <point x="588" y="66" type="line"/>
      <point x="80" y="66" type="line"/>
    </contour>
  </outline>
</glyph>
<glyph name="greaterequal" format="1">
  <advance width="674"/>
  <unicode hex="2265"/>
  <outline>
    <contour>
      <point x="96" y="109" type="line"/>
      <point x="576" y="334" type="line"/>
      <point x="576" y="374" type="line"/>
      <point x="98" y="610" type="line"/>
      <point x="98" y="540" type="line"/>
      <point x="487" y="354" type="line"/>
      <point x="96" y="180" type="line"/>
    </contour>
    <contour>
      <point x="80" y="4" type="line"/>
      <point x="586" y="4" type="line"/>
      <point x="586" y="66" type="line"/>
      <point x="80" y="66" type="line"/>
    </contour>
  </outline>
</glyph>
<glyph name="lozenge" format="1">
  <advance width="623"/>
  <unicode hex="25CA"/>
  <outline>
    <contour>
      <point x="281" y="-22" type="line"/>
      <point x="334" y="-22" type="line"/>
      <point x="565" y="356" type="line"/>
      <point x="338" y="735" type="line"/>
      <point x="285" y="735" type="line"/>
      <point x="56" y="356" type="line"/>
    </contour>
    <contour>
      <point x="308" y="49" type="curve"/>
      <point x="250" y="153"/>
      <point x="189" y="254"/>
      <point x="130" y="356" type="curve"/>
      <point x="190" y="458"/>
      <point x="254" y="557"/>
      <point x="312" y="662" type="curve"/>
      <point x="369" y="558"/>
      <point x="431" y="458"/>
      <point x="490" y="356" type="curve"/>
      <point x="430" y="254"/>
      <point x="366" y="153"/>
    </contour>
  </outline>
</glyph>
<glyph name="uniFB01" format="1">
  <advance width="1205"/>
  <unicode hex="FB01"/>
  <outline>
    <contour>
      <point x="246" y="0" type="line"/>
      <point x="411" y="0" type="line"/>
      <point x="411" y="919" type="line"/>
      <point x="869" y="919" type="line"/>
      <point x="869" y="0" type="line"/>
      <point x="1034" y="0" type="line"/>
      <point x="1034" y="1026" type="line"/>
      <point x="411" y="1026" type="line"/>
      <point x="412" y="1162" type="line" smooth="yes"/>
      <point x="412" y="1297"/>
      <point x="438" y="1379"/>
      <point x="573" y="1379" type="curve" smooth="yes"/>
      <point x="610" y="1379"/>
      <point x="657" y="1374"/>
      <point x="683" y="1364" type="curve"/>
      <point x="681" y="1493" type="line"/>
      <point x="637" y="1503"/>
      <point x="600" y="1514"/>
      <point x="545" y="1514" type="curve" smooth="yes"/>
      <point x="322" y="1514"/>
      <point x="251" y="1358"/>
      <point x="248" y="1138" type="curve" smooth="yes"/>
      <point x="246" y="1026" type="line"/>
      <point x="45" y="1026" type="line"/>
      <point x="45" y="919" type="line"/>
      <point x="246" y="919" type="line"/>
    </contour>
    <contour>
      <point x="877" y="1307" type="line"/>
      <point x="1030" y="1307" type="line"/>
      <point x="1030" y="1462" type="line"/>
      <point x="877" y="1462" type="line"/>
    </contour>
  </outline>
</glyph>
<glyph name="J.alt" format="1">
  <advance width="939"/>
  <outline>
    <contour>
      <point x="321" y="-23" type="curve" smooth="yes"/>
      <point x="388" y="-23"/>
      <point x="448" y="-12"/>
      <point x="502" y="11" type="curve" smooth="yes"/>
      <point x="671" y="82"/>
      <point x="755" y="256"/>
      <point x="755" y="499" type="curve" smooth="yes"/>
      <point x="755" y="1456" type="line"/>
      <point x="583" y="1456" type="line"/>
      <point x="583" y="488" type="line" smooth="yes"/>
      <point x="583" y="296"/>
      <point x="517" y="125"/>
      <point x="326" y="125" type="curve" smooth="yes"/>
      <point x="237" y="125"/>
      <point x="176" y="156"/>
      <point x="122" y="197" type="curve"/>
      <point x="71" y="81" type="line"/>
      <point x="131" y="21"/>
      <point x="208" y="-23"/>
    </contour>
  </outline>
</glyph>
<glyph name="a.alt" format="1">
  <advance width="608"/>
  <outline>
    <contour>
      <point x="276" y="-12" type="curve" smooth="yes"/>
      <point x="337" y="-12"/>
      <point x="416" y="7"/>
      <point x="462" y="83" type="curve"/>
      <point x="476" y="23"/>
      <point x="534" y="-2"/>
      <point x="578" y="-2" type="curve"/>
      <point x="596" y="70" type="line"/>
      <point x="570" y="70"/>
      <point x="533" y="85"/>
      <point x="533" y="143" type="curve" smooth="yes"/>
      <point x="533" y="260" type="line" smooth="yes"/>
      <point x="533" y="464"/>
      <point x="432" y="526"/>
      <point x="307" y="526" type="curve" smooth="yes"/>
      <point x="142" y="526"/>
      <point x="44" y="422"/>
      <point x="44" y="247" type="curve" smooth="yes"/>
      <point x="44" y="96"/>
      <point x="140" y="-12"/>
    </contour>
    <contour>
      <point x="286" y="58" type="curve" smooth="yes"/>
      <point x="194" y="58"/>
      <point x="128" y="139"/>
      <point x="128" y="252" type="curve" smooth="yes"/>
      <point x="128" y="380"/>
      <point x="194" y="456"/>
      <point x="308" y="456" type="curve" smooth="yes"/>
      <point x="398" y="456"/>
      <point x="451" y="407"/>
      <point x="451" y="262" type="curve" smooth="yes"/>
      <point x="451" y="136"/>
      <point x="414" y="58"/>
    </contour>
    <contour>
      <point x="538" y="12" type="move" smooth="yes"/>
    </contour>
    <contour>
      <point x="315" y="507" type="move" smooth="yes"/>
    </contour>
  </outline>
</glyph>
<glyph name="k.alt" format="1">
  <advance width="1082"/>
  <outline>
    <contour>
      <point x="178" y="0" type="line"/>
      <point x="303" y="0" type="line"/>
      <point x="403" y="149"/>
      <point x="504" y="297"/>
      <point x="604" y="445" type="curve"/>
      <point x="885" y="0" type="line"/>
      <point x="1066" y="0" type="line"/>
      <point x="695" y="580" type="line"/>
      <point x="796" y="729"/>
      <point x="897" y="877"/>
      <point x="998" y="1026" type="curve"/>
      <point x="819" y="1026" type="line"/>
      <point x="343" y="308" type="line"/>
      <point x="343" y="1526" type="line"/>
      <point x="178" y="1526" type="line"/>
    </contour>
  </outline>
</glyph>
<glyph name="s.alt" format="1">
  <advance width="500"/>
  <outline>
    <contour>
      <point x="276" y="-13" type="curve" smooth="yes"/>
      <point x="370" y="-13"/>
      <point x="451" y="26"/>
      <point x="451" y="142" type="curve" smooth="yes"/>
      <point x="451" y="246"/>
      <point x="355" y="274"/>
      <point x="275" y="298" type="curve" smooth="yes"/>
      <point x="227" y="312"/>
      <point x="142" y="327"/>
      <point x="142" y="387" type="curve" smooth="yes"/>
      <point x="142" y="441"/>
      <point x="190" y="458"/>
      <point x="246" y="458" type="curve" smooth="yes"/>
      <point x="302" y="458"/>
      <point x="366" y="440"/>
      <point x="394" y="422" type="curve"/>
      <point x="417" y="483" type="line"/>
      <point x="368" y="513"/>
      <point x="306" y="528"/>
      <point x="247" y="528" type="curve" smooth="yes"/>
      <point x="147" y="528"/>
      <point x="57" y="484"/>
      <point x="57" y="386" type="curve" smooth="yes"/>
      <point x="57" y="286"/>
      <point x="142" y="256"/>
      <point x="224" y="232" type="curve" smooth="yes"/>
      <point x="278" y="216"/>
      <point x="370" y="202"/>
      <point x="370" y="136" type="curve" smooth="yes"/>
      <point x="370" y="75"/>
      <point x="322" y="56"/>
      <point x="264" y="56" type="curve" smooth="yes"/>
      <point x="198" y="56"/>
      <point x="118" y="86"/>
      <point x="80" y="114" type="curve"/>
      <point x="57" y="45" type="line"/>
      <point x="110" y="13"/>
      <point x="198" y="-13"/>
    </contour>
    <contour>
      <point x="250" y="0" type="move" smooth="yes"/>
    </contour>
    <contour>
      <point x="250" y="0" type="move" smooth="yes"/>
    </contour>
  </outline>
</glyph>
<glyph name="u.alt" format="1">
  <advance width="606"/>
  <outline>
    <contour>
      <point x="265" y="-12" type="curve" smooth="yes"/>
      <point x="344" y="-12"/>
      <point x="403" y="20"/>
      <point x="444" y="78" type="curve"/>
      <point x="458" y="22"/>
      <point x="508" y="-2"/>
      <point x="556" y="-2" type="curve"/>
      <point x="573" y="70" type="line"/>
      <point x="547" y="70"/>
      <point x="511" y="85"/>
      <point x="511" y="143" type="curve" smooth="yes"/>
      <point x="511" y="513" type="line"/>
      <point x="428" y="513" type="line"/>
      <point x="428" y="209" type="line" smooth="yes"/>
      <point x="428" y="111"/>
      <point x="350" y="59"/>
      <point x="278" y="59" type="curve" smooth="yes"/>
      <point x="218" y="59"/>
      <point x="162" y="92"/>
      <point x="162" y="190" type="curve" smooth="yes"/>
      <point x="162" y="298" type="line" smooth="yes"/>
      <point x="162" y="456"/>
      <point x="142" y="513"/>
      <point x="142" y="513" type="curve"/>
      <point x="60" y="513" type="line"/>
      <point x="60" y="513"/>
      <point x="80" y="435"/>
      <point x="80" y="291" type="curve" smooth="yes"/>
      <point x="80" y="190" type="line" smooth="yes"/>
      <point x="80" y="48"/>
      <point x="168" y="-12"/>
    </contour>
    <contour>
      <point x="546" y="5" type="move" smooth="yes"/>
    </contour>
    <contour>
      <point x="304" y="0" type="move" smooth="yes"/>
    </contour>
  </outline>
</glyph>
<glyph name="uniF6C3" format="1">
  <advance width="298"/>
  <outline>
    <contour>
      <point x="55" y="-302" type="line"/>
      <point x="120" y="-302" type="line"/>
      <point x="202" y="-70" type="line"/>
      <point x="108" y="-70" type="line"/>
    </contour>
  </outline>
</glyph>
